<svg xmlns="http://www.w3.org/2000/svg" viewBox="0 0 54.5 57.5">
  <path d="m-264.2-440.7l.2.2v1.7h.2l.3.1v.5l-.3.1-.4-.1-.4-.4v-1.5l-.1-.2-.2-.1-.2-.1-.1-.2v-.3h.3l.2-.1v-1.3q0-.4.3-.7l.6-.2h.3v.5l-.3.2h-.1v1.2l-.1.4-.2.3z"/>
  <path d="m-264.2-440.7l-.2-.3v-1.3-.3h-.2q-.2 0-.3-.2v-.2-.2l.3-.1.4.1.4.4v1.4l.1.3h.2l.2.1.1.3v.2l-.3.1h-.2V-439q0 .4-.3.6-.2.3-.6.3l-.2-.1-.1-.2v-.3h.3l.1-.1.1-.2v-1-.5l.2-.2z"/>
  <path d="m-264.2-440.7l.2.2v1.7h.2l.3.1v.5l-.3.1-.4-.1-.4-.4v-1.5l-.1-.2-.2-.1-.2-.1-.1-.2v-.3h.3l.2-.1v-1.3q0-.4.3-.7l.6-.2h.3v.5l-.3.2h-.1v1.2l-.1.4-.2.3z"/>
  <path d="m-264.2-440.7l-2.1-1.2-.3-.2v-.2l.1-.2.2-.1h.3l3.2 1.9-3.2 1.7-.3.1h-.2l-.1-.3v-.2l.3-.2 2.1-1.1z"/>
  <path d="m-264.2-440.7l-.1.3-.4.1-.4-.1v-.3-.4h.8l.1.4zm0 2.1l-.1.3-.4.2q-.2 0-.3-.2-.2 0-.2-.3 0-.2.2-.3l.3-.1.4.1.1.3z"/>
  <path d="m-264.2-440.7l-.6-.2q-.2 0-.2-.2l-.1-.2v-.2l.3-.1h.2l.6.2v-.6l.1-.3.2-.1h.3v1l.6-.2h.5v.5l-.3.2-.5.2.3.4.2.3-.1.3h-.3-.1l-.2-.2-.4-.4-.3.4-.2.2h-.4v-.3-.3l.4-.4z"/>
  <path d="m-264.2-440.7l.2-1.2.4-1 .3-.4h.5v.5l-.5 1-.2 1q0 .6.2 1l.5 1.1v.5l-.2.1h-.3l-.3-.6-.4-1-.2-1zM-264.2-440.7l-.2 1.1-.4 1-.3.4-.2.1-.3-.1v-.2-.3l.5-1 .2-1q0-.6-.2-1l-.5-1.1v-.2-.3h.5l.3.5.4 1 .2 1z"/>
  <path d="m-264.2-440.7v-.2q0-.4-.2-.6l-.5-.1-.4.1-.3.4q-.2.4-.2.9v1q0 .7.4 1.1.2.3.6.3h.3l.3-.2h.4v.2l-.2.3q-.3.2-.9.2-.4 0-.7-.2l-.5-.7-.2-1v-1q0-.9.4-1.4.4-.5 1-.5h.6l.4.5q.2.3.2.7v1.7l.1.2v.2h-.8q-.4 0-.7-.2-.3-.3-.3-.7 0-.4.3-.7.4-.3 1-.3zm0 .5q-.3 0-.5.2-.2.1-.2.3l.2.4h.5v-1z"/>
  <path d="m-264.2-440.7l-.2 2v.2h-.5l-.1-.2-.2-2v-.2l.1-.4.4-.2.4.2.1.3v.3zm-.1 3.2l-.1.3h-.6l-.1-.3.1-.2h.6l.1.2z"/>
  <path d="m-264.2-440.7l.2-.6h.6l.1.3v.3h-.2l-.2.6h.3l.2.3-.1.3h-.8l-.3.1h-.5q-.6 0-1-.2-.2-.3-.2-.8l.1-.6.5-.5-.2-.3v-.3q0-.4.3-.7.3-.3.7-.3h.2l.3.1h.4v.5l-.2.1-.3.2-.2-.2h-.5v.3l.1.4.7 1zm-1-.2q-.3.2-.3.5l.1.3.5.1h.4l-.6-1z"/>
  <path d="m-264.2-440.7v1.4l-.3.1h-.3v-1.5h-1l-.3-.1-.1-.3v-.2l.4-.1h1v-1.1-.3l.3-.1h.2l.1.4v1.1h1.3v.6h-1.3z"/>
  <path d="m-264.2-440.7h-2.8l-.4-.1v-.3-.2l.4-.1H-264l.1.3v.3h-.4zm0 1.2H-267.4v-.3-.3H-263.9l.1.3v.2l-.4.1z"/>
  <path d="m-264.2-440.7l-.1.2-.2.1h-.3v-.8l.9-.5q.2-.1.2-.3l-.2-.4q-.2-.2-.6-.2l-.7.2v.4l-.3.1h-.2l-.1-.4v-.5q.5-.3.8-.3l.5-.1q.7 0 1 .3.4.4.4 1l-.2.6q-.2.3-.9.6zm.1 1.2v.3h-.8v-.3-.2l.4-.1h.3l.1.3z"/>
  <path d="m-264.2-440.7v3.8h.4l.3.1.1.3v.2l-.4.1h-1v-5.2h1.3l.1.3v.3h-.8z"/>
  <path d="m-264.2-440.7v-4h-.7l-.1-.3v-.2h1.4v5.1h-1.3l-.1-.3v-.2l.4-.1h.4z"/>
  <path d="m-264.2-440.7h.5l.1.3-.1.2-.3.1h-.2v.7l.4.1v.5l-.4.1h-.1l-.1 1.1v.3l-.2.1h-.2-.2v-.3-1.1h-.5v1.2l-.2.2h-.4l-.1-.3v-1.1h-.1q-.3 0-.4-.2v-.2-.3H-266v-.8h-.4l-.1-.3v-.2l.4-.1h.2v-1.2l.1-.2.1-.1h.4l.1.3v1.2h.4l.1-1.2.1-.3h.5v1.5zm-.7.6h-.5v.7h.4l.1-.7z"/>
  <path d="m-264.2-440.7l.7.6q.2 0 .2.2l-.1.1h-.2-.1l-.8-.6v-.2-.2H-264.2z"/>
  <path d="m-264.2-440.7h.2l.1.3-.1.3-.4.4-.4.1h-.4l-.5-.4-.3-.3h-.1l-.2.3-.3.2h-.3l-.1-.3q0-.2.3-.5.4-.4.7-.4l.3.1.5.4.3.2h.1l.3-.2.2-.2h.1z"/>
  <path d="m-264.2-440.7h.9l-.3 1.5v.2h-.2-.1v-.2l-.3-1.5zm1.4 0h.8l-.2 1.5v.2h-.2-.1v-.2l-.3-1.5z"/>
  <path d="m-264.2-440.7l2.1 1.1.3.2v.4l-.3.1h-.3l-3.2-1.8 3.2-1.8.3-.1h.2l.1.3v.2l-.3.2-2 1.2z"/>
  <path d="m-264.2-440.7l-.1.3-.4.1-.4-.1v-.3-.4h.8l.1.4zm-1 1.5h.8l-1 1.5v.1h-.2v-.1-.1l.4-1.4z"/>
  <path d="m-264.2-440.7q0 .3-.3.6-.2.3-.6.3-.4 0-.7-.3-.3-.3-.3-.6 0-.4.3-.7.3-.3.7-.3.4 0 .6.3.3.3.3.7zm-.4 0q0-.3-.2-.4-.1-.2-.3-.2l-.4.2q-.2.1-.2.4 0 .2.2.3l.4.2q.2 0 .3-.2.2-.1.2-.3zm1.2 1l-2.5.7h-.2v-.2l.1-.2 2.5-.7h.2V-439.8h-.1zm0 1.3q0 .4-.2.7-.3.3-.7.3-.4 0-.7-.3-.2-.3-.2-.7 0-.4.2-.6.3-.3.7-.3.4 0 .7.3.2.2.2.6zm-.4 0l-.1-.3-.4-.2-.4.2-.1.3.1.4.4.2.4-.2.1-.4z"/>
  <path d="m-264.2-440.7h.6l.3.1V-439.7l-.3.1h-.2v-.3q-.3-.2-.7-.2l-.5.1-.2.3.1.2.5.2.4.1q.6.1.8.3.3.3.3.8 0 .4-.3.7-.3.4-.8.5v.9h-.6v-.9l-.6-.2-.2.1-.3-.1v-.8-.3l.3-.1h.2v.3l.2.2.3.1.4.1.6-.2q.2-.1.2-.3 0-.2-.2-.3l-.4-.2h-.5l-.8-.4q-.2-.3-.2-.7 0-.4.2-.7.3-.3.7-.3v-.2l.1-.4h.5l.1.4v.2z"/>
</svg>