<svg xmlns="http://www.w3.org/2000/svg" width="2" height="2">
    <path d="m1.24260644 1.45717652v-.1281871q-.19386958.16314719-.41422399.16314719-.15996894 0-.25001772-.0805142-.09004866-.08157353-.09004866-.1991666 0-.1292463.1186524-.22565142.1186524-.09640513.34642272-.09640513.06144504 0 .13348399.00847513.07203895.0074158.15573126.02436618v-.1440779q0-.0730984-.06780138-.12712765Q1.10700367.59800578.9714009.59800578q-.1038208 0-.29133403.06038559Q.6461661.6689854.63663165.6689854q-.01695037 0-.02966318-.01271281Q.5953151.64355989.5953151.62449074q0-.01800983.01059403-.02860374Q.62074061.57999607.72562086.55245179.89088682.50795712.97563858.50795712q.16844396 0 .2627303.08369231.09428634.08263286.09428634.18751324v.58902453h.1186524q.0328413 0 .04661344.01271269.01377214.01165336.01377214.03178197 0 .01906916-.01377214.03178185-.01377215.01271281-.04661345.01271281h-.20870117zm0-.44282785Q1.18010207.99633897 1.1101819.98786372 1.04026174.97938859.96292577.97938859q-.19386958 0-.3029874.08369231-.08263297.06250437-.08263297.14937492 0 .0805142.06250437.13560277.06356382.05508869.184335.05508869.11547428 0 .21399818-.04555411.09958324-.04661345.2044635-.14725614v-.19598836z"/>
    <path d="m.70337359.31770004v.59008398q.16102828-.2097605.3887986-.2097605.19492891 0 .33370992.14195911.138781.14089979.138781.34642273 0 .20764172-.14089978.35171962-.13984034.14407802-.33159113.14407802-.23306735 0-.38879861-.20976062v.17480054H.49467242q-.03178185 0-.045554-.01271282-.01377214-.01271269-.01377214-.03178185 0-.0201286.01377214-.03178197.01377215-.0127127.045554-.0127127h.11971184V.40774883H.49467242q-.03178185 0-.045554-.01271282Q.43534628.38232331.43534628.3621947q0-.01906904.01377214-.03178185.01377215-.01271281.045554-.01271281h.20870117zm.7723002.87294288q0-.16844407-.11547428-.28497768-.11547429-.11759307-.2701461-.11759307-.15467193 0-.2701462.11759307-.11547417.11653361-.11547417.28497768 0 .16844408.11547416.28603714.11547428.11653361.27014621.11653361.15467181 0 .2701461-.11653361.11547428-.11759306.11547428-.28603714z"/>
    <path d="m1.3496056.62980466v-.0296631q0-.0328413.01271269-.04661346.0127128-.01377216.03178197-.01377216.02012849 0 .0328413.01377216.0127127.01377215.0127127.04661346v.20128536q-.00105875.0328413-.01377215.04661345-.01165336.01377216-.03178185.01377216-.01800983 0-.03072252-.01165337Q1.35172438.8374464 1.34960559.8088427 1.34324913.73362553 1.25002224.66582415 1.1578548.59802276 1.00106409.59802276q-.19810726 0-.30086873.1239494-.10276147.12394942-.10276147.2839183 0 .17268167.1133555.2849777.11335538.11229605.29345281.11229605.10382092 0 .21081995-.03813828.10805849-.03813828.19492903-.12289.02224728-.02118794.03919765-.02118794.0180097 0 .02966307.01271276.01271281.01165336.01271281.0296631 0 .04555406-.10699903.11547424-.17268176.11335544-.38456104.11335544-.21505752 0-.35383853-.13666216-.13772155-.13772157-.13772155-.3485415 0-.21505752.14089979-.35701667.14195911-.14195916.35701663-.14195916.20446361 0 .34324461.12183062z"/>
    <path d="m1.38721419.31771765v1.24055343h.1186524q.0328413 0 .04661344.01271281.01377214.01165336.01377214.03178185 0 .01906916-.01377214.03178197-.01377215.0127127-.04661345.0127127h-.20870117v-.1769192q-.15467193.21187928-.39303617.21187928-.12077118 0-.2320079-.06356382-.11017726-.06462315-.17480042-.18327555-.06356382-.1186524-.06356382-.24472059 0-.12712764.06356382-.2447207.06462316-.1186524.17480042-.18327555Q.78335806.69804101.9051887.69804101q.23306723 0 .39197672.2118794v-.5021541H1.178513q-.0328413 0-.04661344-.0127127-.01377214-.0127128-.01377214-.0328413 0-.01906916.01377214-.03178197.01377214-.0127127.04661344-.0127127h.20870118zm-.09004878.87294288q0-.16950352-.11441483-.28603713-.11441483-.11653362-.272265-.11653362-.15890949 0-.27332432.11653362-.11441483.11653361-.11441483.28603713 0 .16844396.11441483.28603702.11441483.11653361.27332433.11653361.15785016 0 .27226499-.1165336.11441483-.11759307.11441483-.28603703z"/>
    <path d="m1.49739133 1.0195732H.59054782q.02330672.17268164.14407801.27862134.12183063.10488025.30086862.10488025.09958323 0 .20870117-.0328413.10911781-.0328413.17797865-.08687054.02012849-.01589093.03496008-.01589093.01695026 0 .02966307.01377215.0127127.01271269.0127127.03072251 0 .01800971-.01695026.03496009-.05085113.05296979-.18115689.09958324-.12924642.0455541-.26590852.0455541-.22882967 0-.38244215-.1493749Q.50049916 1.19225483.50049916.9793161q0-.19386958.14301857-.33265059Q.78759563.50788464.9994749.50788464q.21823575 0 .35913554.14301845.14089967.14195923.13878088.36867011zM1.40734268.92952443Q1.38085772.78226829 1.26750234.69010085 1.15520629.5979333.99947491.5979333q-.15573126 0-.2680273.09110811Q.61915154.78014951.59160726.92952443h.8157354z"/>
    <path d="m.88823831.83746496v.73839945h.3909174q.03178184 0 .04555399.01271269.01377214.01165336.01377214.03178197 0 .01906916-.01377214.03178185-.01377215.01271281-.045554.01271281H.58313202q-.03178185 0-.045554-.01271281-.01377214-.0127127-.01377214-.03178185 0-.02012861.01377214-.03178197.01377215-.0127127.045554-.0127127h.21505752V.83746497H.6053794q-.03178185 0-.04555411-.01271281Q.54605315.81203934.54605315.79191085q0-.01906916.01377215-.03178185Q.57359756.74741618.6053794.74741618h.19281014V.61287286q0-.11229605.0911081-.19492903.09110823-.08263297.24154248-.08263297.12606819 0 .26908676.02330672.05402924.00847525.06462315.0201286.01165336.01165337.01165336.03072253 0 .01906904-.01271269.03178185-.01271281.01165336-.03390075.01165336-.00847513 0-.02860362-.00317823-.15996895-.02436606-.27014621-.02436606-.11653361 0-.18009744.05720736Q.88823831.53977446.88823831.61287286v.13454332h.4163429q.03178185 0 .045554.01271282.01377213.01271269.01377213.0328413 0 .01906904-.01377214.03178185-.01377214.01271281-.045554.01271281H.88823832z"/>
    <path d="m1.27491814.5158435V.35269632h.20870105q.03178197 0 .04555411.01271282.01377215.0127128.01377215.0328413 0 .01906915-.01377215.03178185Q1.51540116.4427451 1.4836192.4427451h-.11971185v.88883381q0 .08898933-.0381382.1589095-.0254255.04661344-.08475176.09640512-.05932625.04979156-.10805848.0709795-.04873223.02118794-.13030576.02118794H.75051676q-.03178197 0-.04555411-.0127127Q.6911905 1.65469491.6911905 1.6345663q0-.02012849.01377215-.0328413.01377214-.0127127.04555411-.0127127l.25531462.00105875q.0783953 0 .14089966-.0402571.06356383-.04025698.10488037-.11759295.02330673-.04449466.02330673-.1133555v-.26696797Q1.13189957 1.247886.90624802 1.247886q-.18327555 0-.31675954-.13560278Q.45706383.97562101.45706383.78387022q0-.1917508.13242465-.32735357.133484-.13560277.31675954-.13560277.22565155 0 .36867012.19492903zm0 .26802731q0-.15679071-.10805849-.2648492Q1.05986062.41096313.9104856.41096313q-.14937492 0-.25637395.10911793Q.5471126.62813955.5471126.78387081q0 .15679071.10699904.26590853.10699903.10805848.25637395.10805848.14937503 0 .25637406-.10805848.10805849-.10911782.10805849-.26590853z"/>
    <path d="m.71290817.33522467v.5477081Q.79765993.79076521.87499589.75368635q.0783953-.03813832.17480042-.03813832.1038208 0 .17585987.03707887.07309829.03601953.12183051.11229604.04873235.07521719.04873235.1589095v.55194566h.09958324q.0328413 0 .04555411.01271281.01377214.01165337.01377214.03178186 0 .01906915-.01377214.03178197-.01271281.01271269-.04555411.01271269h-.28921525q-.0328413 0-.04661345-.0127127-.01377214-.0127128-.01377214-.03178196 0-.0201285.01377214-.03178186.01377214-.0127128.04661345-.0127128h.09958323v-.5455892q0-.09640513-.06992016-.1610284-.06886072-.06462315-.19281013-.06462315-.09746458 0-.1663253.0476729-.04979167.03390063-.1642065.15996882v.56359902h.10064269q.03178185 0 .045554.01271281.01377213.01165337.01377213.03178186 0 .01906915-.01377214.03178197-.01377214.01271269-.045554.01271269h-.2902747q-.03178185 0-.04555399-.0127127-.01377226-.0127128-.01377226-.03178196 0-.0201285.01377226-.03178186.01377214-.0127128.045554-.0127128h.10064268V.42527332H.504207q-.03178185 0-.045554-.0127127Q.44488086.39984784.44488086.37971934q0-.01906915.01377214-.03178197Q.47242515.33522467.504207.33522467h.20870117z"/>
    <path d="m1.04079146.31308217V.542972h-.1313652V.31308217h.1313652zm.00317811.45660106v.82844727h.34960096q.0328413 0 .04661345.01271317.01377214.01165324.01377214.03178233 0 .01906916-.01377214.03178114-.01377215.01271316-.04661345.01271316H.60537941q-.03178185 0-.04555411-.01271316Q.54605315 1.66169516.54605315 1.642626q0-.02012909.01377215-.03178233.01377226-.01271317.0455541-.01271317h.34960085V.85973177H.69542807q-.03178185 0-.04661345-.01271317Q.63504248.83430544.63504248.81523628q0-.0201279.01377214-.03284107Q.66258677.76968323.69542807.76968323h.3485415z"/>
    <path d="m1.24684412.10852713v.22988983h-.1313652V.10852713h.1313652zm.0052969.5466496H.72350208q-.03178185 0-.045554-.01271317Q.66417594.6297504.66417594.6096225q0-.01906916.0127127-.03178233Q.69066077.56512701.72350207.56512701h.61762827v.9799418q0 .1133562-.04661345.18963284-.04661344.07627663-.13984033.12394953-.06462316.03284106-.15361248.03284106h-.2828589q-.03178198 0-.04555412-.01271316-.01377214-.01165325-.01377214-.03178114 0-.02012909.01377214-.03284225.01377214-.01271199.04555411-.01271199l.28074012.00105519q.11335539 0 .18327555-.07415797.06992017-.07415679.06992017-.18327567V.65517317z"/>
    <path d="m.7489277 1.26847565v.3962138H.54022653q-.03178197 0-.04555411-.01271316-.01377215-.01271198-.01377215-.03178114 0-.02012908.01377215-.03178233.01377214-.01271316.04555411-.01271316h.11971185V.42519536H.54022653q-.03178197 0-.04555411-.01271317Q.48090027.39977021.48090027.37964113q0-.01906916.01377215-.03178114Q.50844456.33514682.54022653.33514682H.7489277v.81997262l.37820458-.31781852h-.04555411q-.03178186 0-.045554-.01271316-.01377214-.01271199-.01377214-.03178114 0-.02012909.01377214-.03284225.01377214-.01271199.045554-.01271199h.28497768q.0328413 0 .04661345.01271199.01377226.01271316.01377226.03284225 0 .01906915-.01377226.03178114-.01377215.01271316-.04661345.01271316h-.10276147l-.34748205.2902747.43964961.44812404h.10276147q.0328413 0 .04661345.01271316.01377214.01165325.01377214.03178233 0 .01906916-.01377214.03178114-.01377215.01271317-.04661345.01271317h-.28815592q-.03178185 0-.045554-.01271317-.01377214-.01271198-.01377214-.03178114 0-.02012908.01377215-.03178233.01377214-.01271316.045554-.01271316h.06250436l-.38244214-.39303523-.10170202.08581122z"/>
    <path d="m1.04396957.33525171v1.24055402h.34960096q.0328413 0 .04661345.01271317.01377214.01165324.01377214.03178114 0 .01906916-.01377214.03178233-.01377215.01271317-.04661345.01271317H.60537941q-.03178185 0-.04555411-.01271317-.01377215-.01271317-.01377215-.03178233 0-.0201279.01377215-.03178114.01377226-.01271317.0455541-.01271317h.34960085V.42530143H.6986063q-.03178185 0-.04661345-.01271316Q.63822071.3998751.63822071.3797472q0-.01906915.01377214-.03178232Q.665765.3352517.6986063.3352517h.34536327z"/>
    <path d="m.59107754.5572041v.09004854Q.70443304.52542178.81884787.52542178q.06886072 0 .12077118.03707958.05191046.03601965.08687054.11017643.05932614-.07415678.11971185-.11017643.06144492-.03707958.12288996-.03707958.09640512 0 .15361248.06250473.07521718.08051396.07521718.17585975v.6218663h.07521718q.03178185 0 .045554.01271199.01377226.01165442.01377226.03178232 0 .01906916-.01377226.03178233-.01377215.01271198-.045554.01271198h-.1642065V.7722621q0-.06780198-.04131644-.11229629-.04131643-.0444955-.09534567-.0444955-.04873223 0-.10276147.03707959-.05402924.03601965-.12289008.14301868v.59008398h.07415773q.03178197 0 .04555412.01271199.01377214.01165442.01377214.03178232 0 .01906916-.01377214.03178233-.01377215.01271198-.04555412.01271198H.95656942v-.6960231q0-.07097937-.04237588-.1165336Q.872877.61547032.82096665.61547032q-.0476729 0-.09428634.03072359Q.66205716.68962829.59107754.79556858v.59008398h.07521718q.03178185 0 .045554.01271199.01377214.01165442.01377214.03178232 0 .01906916-.01377214.03178233-.01377215.01271198-.045554.01271198H.42687103q-.03178185 0-.045554-.01271198Q.3675449 1.44921603.3675449 1.43014687q0-.0201279.01377215-.03178232.01377214-.01271199.045554-.01271199H.5020882V.64725264H.42687103q-.03178185 0-.045554-.01271316Q.3675449.6218275.3675449.6016984q0-.01906916.01377215-.03178114.01377214-.01271316.045554-.01271316h.1642065z"/>
    <path d="m.71767546.557109v.13454403Q.81090235.59736716.88611953.56134751q.07521718-.03601965.1695034-.03601965.10170214 0 .18539445.04343557.05932626.03178114.10699904.1059391.04873223.07309805.04873223.1504346v.56042033h.07521718q.03178197 0 .04555411.01271316.01377215.01165325.01377215.03178114 0 .01906916-.01377215.03178233-.01377214.01271317-.04555411.01271317h-.23836424q-.0328413 0-.04661345-.01271317-.01377214-.01271317-.01377214-.03178233 0-.0201279.01377214-.03178114.01377215-.01271316.04661345-.01271316h.07415773v-.5455885q0-.09428704-.06886072-.15891043Q1.17003777.6153764 1.0545636.6153764q-.08792999 0-.15255314.03601965Q.8373873.68635578.71767546.8272558v.55830166h.10064269q.03178185 0 .04555399.01271316.01377214.01165325.01377214.03178114 0 .01906916-.01377214.03178233-.01377214.01271317-.045554.01271317h-.2902747q-.03178185 0-.0455541-.01271317-.01377215-.01271317-.01377215-.03178233 0-.0201279.01377214-.03178114.01377226-.01271316.04555411-.01271316h.1006427V.64715872h-.0752172q-.03178184 0-.04555399-.01271316Q.4941427.62173239.4941427.60160449q0-.01906916.01377226-.03178232Q.5216871.557109.55346895.557109h.1642065z"/>
    <path d="m1.49739133 1.0005742q0 .20340355-.14619668.34748217-.14513735.14407742-.35066029.14407742-.20764172 0-.35277907-.14407742-.14513735-.14513735-.14513735-.34748218 0-.20340475.14513735-.34748217.14513735-.14513735.35277907-.14513735.20552294 0 .3506603.14407742.14619667.14407861.14619667.3485421zm-.09004865 0q0-.1673851-.11971185-.28497746Q1.16897843.5980032.99947491.5980032q-.1695034 0-.28921525.11865228-.1186524.11759354-.1186524.28391871 0 .16526525.1186524.28391753.11971185.11865346.28921525.11865346.16950352 0 .28815592-.11759354.11971185-.11865228.11971185-.28497745z"/>
    <path d="m.70337359.35266122v.16208785Q.78282834.41834335.87393644.36961172.96504455.3208789 1.08899396.3208789q.1313652 0 .2426018.0614448.11123672.06144599.17162231.17162242.06144504.1091177.06144504.22988983 0 .19175032-.13772155.32841301-.13666222.13560277-.33688815.13560277-.23836424 0-.38667982-.19387017v.5360551h.21611697q.03178185 0 .045554.01165324.01377214.01271317.01377214.03284107 0 .01906915-.01377215.03178232-.01377214.01271198-.045554.01271198H.49467243q-.03178185 0-.045554-.01271198-.01377214-.01165324-.01377214-.03178232 0-.0201279.01377214-.03284107.01377215-.01165324.045554-.01165324h.11971184V.44270976H.49467242q-.03178185 0-.045554-.01271317Q.43534628.41728461.43534628.39715553q0-.01906916.01377214-.03178114.01377215-.01271317.045554-.01271317h.20870117zm.77124075.43117473q0-.1536132-.11229605-.2627309-.1112366-.11017761-.27226488-.11017761-.16208772 0-.27438377.11017762Q.70337359.63128268.70337359.78383595q0 .153612.11229605.26378962.11229605.11017763.27438377.11017763.15996883 0 .27226488-.10911889.11229605-.11017643.11229605-.26484836z"/>
    <path d="m1.29557635.51475396V.35266612h.20870106q.0328413 0 .04661344.01271316.01377226.01271317.01377226.03284107 0 .01906916-.01377226.03178232-.01377214.01271317-.04661344.01271317H1.385625v1.14732571h.1186524q.0328413 0 .04661344.01165324.01377226.01271317.01377226.03284225 0 .01906916-.01377226.03178114-.01377214.01271317-.04661344.01271317h-.42375858q-.03178197 0-.04555411-.01271317-.01377214-.01165324-.01377214-.03178114 0-.02012908.01377214-.03284225.01377214-.01165324.04555411-.01165324h.21505752v-.5360539q-.14725613.19386898-.38667982.19386898-.1991666 0-.33688815-.13560277Q.43534628.97559235.43534628.78384084q0-.19281025.1366621-.3273531Q.70972994.32088499.91101531.32088499q.2373049 0 .38456104.19386898zm0 .26908688q0-.153612-.11229605-.2627297Q1.07098425.4109335.90995598.4109335q-.16102828 0-.27332433.11017763-.11229604.1091177-.11229604.2627297 0 .15361319.11229604.26378963.11229605.11017762.27332433.11017762.16102827 0 .27332432-.11017762.11229605-.11017644.11229605-.26378963z"/>
    <path d="m.86387214.55247076v.22459258q.17374109-.1567906.25955218-.2012849.08687055-.04555424.15996895-.04555424.07945474 0 .14725613.05402889.06886072.05297015.06886072.08051396 0 .02012908-.01377215.03390099-.0127127.01271317-.0328413.01271317-.01059391 0-.0180097-.0031786-.0074158-.00423732-.0275443-.0243664-.03707886-.0370784-.06462315-.0508503-.0275444-.0137731-.05402924-.0137731-.0582668 0-.14089979.04661416-.08157352.04661297-.28391835.22776998v.48732227h.39409562q.0328413 0 .04661345.01271317.01377214.01165324.01377214.03178114 0 .01906916-.01377214.03178232-.01377215.01271317-.04661345.01271317H.5598253q-.03178186 0-.045554-.01165324-.01377214-.01271317-.01377214-.03178233 0-.01800923.0127127-.02966366.01377213-.01271198.04661344-.01271198H.7748828V.64252049H.61067642q-.03178197 0-.0455541-.01271317Q.55135016.61709415.55135016.59696626q0-.01906916.0127128-.03178233Q.57783513.55247076.61067643.55247076h.25319572z"/>
    <path d="m1.29398718.59793107q0-.0307224.0127128-.04449549.01271282-.0137719.03178186-.0137719.0201286 0 .0328413.0137719.01271281.0137731.01271281.04661416V.752603q0 .03178114-.0127128.04555305-.0127127.0137731-.03284131.0137731-.0180097 0-.03072252-.01165325-.01165336-.01165324-.01377214-.03813832-.00635635-.06356465-.0656826-.10488037-.08687043-.05932614-.229889-.05932614-.14937492 0-.2320079.06038488Q.70390332.70387018.70390332.76001892q0 .06356346.07415774.1059391.050851.02966367.19281024.04555424.18539433.0201279.25743328.04555423.1027616.0370784.15255315.1027617.05085101.06568214.05085101.14195877 0 .11335503-.10911782.20234483-.10911781.08792987-.31993777.08792987-.21081995 0-.34536327-.10699903 0 .03601965-.00423757.04661297-.00423768.0105945-.01589104.01801042-.01059391.00741591-.02436605.00741591-.01906916 0-.03178197-.01377309-.0127127-.0137719-.0127127-.04555423v-.18327567q0-.03178114.01165336-.04555304.0127127-.0137731.0328413-.0137731.01906916 0 .03178186.0137731.01377214.01271198.01377214.03495972 0 .04873164.02436617.08157389.03707887.0508503.11759307.08475129.08157353.03284106.19916647.03284106.17374109 0 .25849285-.06462339.08475176-.0646222.08475176-.1366615 0-.08263263-.08581121-.13242538-.08687054-.04979156-.25319572-.06674087Q.83844664.98567022.7664077.95812523.69436874.93058142.65411164.87549261.61385454.8204038.61385454.75684033q0-.11441495.11229605-.181157.11229605-.0678008.26802743-.0678008.184335 0 .29980916.09004854z"/>
    <path d="m.8172587.68481185h.48308494q.03178185 0 .045554.01271316.01377214.01271317.01377214.03284107 0 .01906916-.01377214.03178232-.01377215.01271317-.045554.01271317H.8172587v.59220264q0 .07733538.06144504.1292456.06250437.0519114.18221622.0519114.09004878 0 .19492903-.02648507.10488025-.027545.16314706-.0614448.02118794-.01377309.03496008-.01377309.01695038 0 .02966307.0137731.01271281.01271197.01271281.0307224 0 .01589056-.01377214.02966247-.03390075.03495973-.16526596.07627663-.13030576.04025698-.2500176.04025698-.15573126 0-.24789882-.07309804-.09216744-.07309805-.09216744-.19704758V.77486157H.56300353q-.03178185 0-.045554-.01271317Q.50367727.74943524.50367727.72930734q0-.01906916.01377226-.03178233.01377215-.01271316.045554-.01271316h.1642065v-.2627297q0-.03178233.0127127-.04555424.01271281-.0137719.03178197-.0137719.02012849 0 .0328413.0137719.0127127.0137719.0127127.04555423v.2627297z"/>
    <path d="m1.31782362 1.44132708v-.13030552q-.18221621.16526524-.3940955.16526524-.13030587 0-.19810726-.07097938Q.637691 1.3120803.637691 1.18813077V.61393854H.51797914q-.03178185 0-.045554-.01271317Q.458653.58851221.458653.56838431q0-.01906916.01377215-.03178233Q.48619729.52389.51797914.52389h.20870117v.66424077q0 .08687113.05508858.14301868.05508869.05614874.13772167.05614874.2171763 0 .39833306-.19916742V.61393854h-.1642065q-.03178186 0-.045554-.01271317-.01377214-.01271316-.01377214-.03284106 0-.01906916.01377214-.03178233Q1.12183526.52389 1.15361712.52389h.25319583v.82844728h.07521718q.03178185 0 .045554.01271316.01377226.01165325.01377226.03178233 0 .01906916-.01377226.03178114-.01377215.01271317-.045554.01271317h-.1642065z"/>
    <path d="m1.07787033 1.45871598H.92743596L.56194408.63132626H.47083597q-.03178185 0-.045554-.01271198Q.41150983.60590111.41150983.58577203q0-.01906916.01377214-.03178114.01377215-.01271317.045554-.01271317H.804546q.03178185 0 .045554.01271317.01377214.01271198.01377214.03284107 0 .01906915-.01377214.03178232Q.83632785.63132626.804546.63132626H.65728987l.32629412.73839992h.03919764l.3199379-.73839992h-.1483156q-.03178184 0-.0455541-.01271198-.01377215-.01271317-.01377215-.03284225 0-.01906916.01377215-.03178114.01377226-.01271317.0455541-.01271317h.33476937q.0328413 0 .045554.01271317.01377214.01271198.01377214.03284107 0 .01906915-.01377214.03178232-.0127127.01271198-.045554.01271198h-.09004877l-.3612542.82738972z"/>
    <path d="m1.30722971 1.45809091l-.11017726.00105518-.19598836-.57207474-.19492903.57207474-.11017727-.00105518-.184335-.82738853H.4681876q-.03178198 0-.04555412-.01271317Q.40886132.60527723.40886132.58514815q0-.01906916.01377215-.03178233Q.4364056.54065384.46818758.54065384h.24472059q.03178185 0 .045554.01271198Q.77223442.566079.77223442.58620807q0 .01906916-.01377227.03178114-.01377214.01271317-.045554.01271317h-.1133555l.15785017.70555767.18963201-.5635989h.10593959l.19492903.5635989.1514937-.70555767H1.2871011q-.03178185 0-.04661344-.01271317-.01377214-.01271198-.01377214-.03284106 0-.01906916.01377214-.03178233.01377214-.01271198.04661344-.01271198h.24366126q.0328413 0 .04661345.01271198.01377214.01271317.01377214.03284225 0 .01906916-.01377214.03178114-.01377215.01271317-.04661345.01271317h-.04237588l-.18115677.82738853z"/>
    <path d="m1.05986062.97882297l.40786764.39091655q.0402571 0 .05085101.00423733.01059403.00317859.01800983.01483183.00847513.01165324.00847513.02542634 0 .01906916-.01377214.03178114-.01377215.01271316-.04661345.01271316H1.1986415q-.0328413 0-.04661344-.01271316-.01377214-.01271198-.01377214-.03178114 0-.02012909.01377214-.03178233.01377214-.01271317.04661344-.01271317h.14725614L.9994749 1.0381491l-.34430382.33159042h.14831546q.03178197 0 .04555411.01271317.01377215.01165324.01377215.03178233 0 .01906916-.01377215.03178114-.01377214.01271316-.0455541.01271316H.5142713q-.03178197 0-.04555411-.01271316-.01377215-.01271198-.01377215-.03178114 0-.0137731.0074158-.02542634.00847513-.01165324.0180097-.01483183.01059404-.00423733.05085114-.00423733L.93908932.97882297.57677567.63134079q-.03813831 0-.04873223-.00423851Q.51850887.62286495.51003374.6112117.50261794.59955846.50261794.58578656q0-.01906916.01377214-.03178233Q.53016223.54129225.56300353.54129225h.2426018q.0328413 0 .04555412.01271198Q.86493159.5667174.86493159.5868453q0 .01906916-.01377214.03178232Q.83844664.6313408.80560533.6313408H.69966575l.29980916.28921478.30192806-.28921478H1.1954634q-.03178197 0-.04661356-.01271317-.01377215-.01271316-.01377215-.03284106 0-.01906916.01377215-.03178233.01377226-.01271198.04661356-.01271198h.2426018q.03178186 0 .045554.01271198.01377214.01271317.01377214.03284107 0 .01271316-.00847513.0243664-.0074158.01165325-.0180097.01589058-.00953458.00423851-.0476729.00423851l-.36337298.34748218z"/>
    <path d="m.95498025 1.25427073L.54181559.42688219H.51533063q-.03178185 0-.045554-.01271316Q.4560045.40145705.4560045.38238789q0-.01377191.00635635-.02436641.0074158-.01165325.0180097-.01589057.01165337-.00529726.0349601-.00529726h.24366125q.03178197 0 .04555411.01271317Q.81831815.3622588.81831815.3823879q0 .01906916-.01377215.03178114Q.79077386.42688219.7589919.42688219H.63928004l.3633731.72992408.35807609-.72992408h-.11971185q-.03178185 0-.04555399-.01271316-.01377226-.01271198-.01377226-.03284107 0-.01906916.01377226-.03178114.01377214-.01271317.045554-.01271317h.2426018q.0328413 0 .04661345.01271317.01377214.01271198.01377214.03284107 0 .0137719-.00847513.02542515-.00847513.01165324-.01906916.01589057-.0105939.00317858-.05932614.00317858L.89353533 1.5742091h.13878088q.03178197 0 .04555412.01165324.01377214.01271317.01377214.03284107 0 .01906916-.01377214.03178232-.01377215.01271199-.04555412.01271199h-.5127479q-.03178196 0-.0455541-.01271199-.01377215-.01165324-.01377215-.03178232 0-.0201279.01377214-.03284107.01377215-.01165324.04555412-.01165324h.27862122l.1567907-.31993836z"/>
    <path d="m1.38191717.5412056v.07945403l-.6663605.74899442h.60173723v-.12289079q0-.03178114.01165336-.04555423.01271281-.0137719.0328413-.0137719.02012861 0 .0328413.0137719.01271282.0137731.01271282.04555423l-.00105993.2118794H.59266612v-.07945403l.66318238-.7479345H.7028434v.12077094q0 .03178233-.0127127.04555423Q.6774179.81135121.65834874.81135121q-.0201285 0-.0328413-.0137719Q.61279473.7838074.61279473.75202506V.5412056h.76912197z"/>
</svg>