<?xml version="1.0" encoding="UTF-8" standalone="no"?>
<!-- Created with Inkscape (http://www.inkscape.org/) -->

<svg
   xmlns:dc="http://purl.org/dc/elements/1.1/"
   xmlns:cc="http://creativecommons.org/ns#"
   xmlns:rdf="http://www.w3.org/1999/02/22-rdf-syntax-ns#"
   xmlns:svg="http://www.w3.org/2000/svg"
   xmlns="http://www.w3.org/2000/svg"
   xmlns:sodipodi="http://sodipodi.sourceforge.net/DTD/sodipodi-0.dtd"
   xmlns:inkscape="http://www.inkscape.org/namespaces/inkscape"
   width="2"
   height="2"
   viewBox="0 0 2 2"
   id="svg2"
   version="1.1"
   inkscape:version="0.91 r13725"
   sodipodi:docname="alphabetsoup.svg">
  <defs
     id="defs4" />
  <sodipodi:namedview
     id="base"
     pagecolor="#ffffff"
     bordercolor="#666666"
     borderopacity="1.0"
     inkscape:pageopacity="0.0"
     inkscape:pageshadow="2"
     inkscape:zoom="126.71353"
     inkscape:cx="-0.60310708"
     inkscape:cy="1.9474313"
     inkscape:document-units="px"
     inkscape:current-layer="layer1"
     showgrid="false"
     fit-margin-top="0"
     fit-margin-left="0"
     fit-margin-right="0"
     fit-margin-bottom="0"
     inkscape:window-width="1920"
     inkscape:window-height="1110"
     inkscape:window-x="15"
     inkscape:window-y="6"
     inkscape:window-maximized="0"
     units="px" />
  <metadata
     id="metadata7">
    <rdf:RDF>
      <cc:Work
         rdf:about="">
        <dc:format>image/svg+xml</dc:format>
        <dc:type
           rdf:resource="http://purl.org/dc/dcmitype/StillImage" />
        <dc:title></dc:title>
      </cc:Work>
    </rdf:RDF>
  </metadata>
  <g
     inkscape:label="Layer 1"
     inkscape:groupmode="layer"
     id="layer1"
     transform="translate(-318.70203,-4181.4194)">
    <g
       style="font-style:normal;font-weight:normal;font-size:183px;line-height:125%;font-family:sans-serif;letter-spacing:0px;word-spacing:0px;fill:#000000;fill-opacity:1;stroke:none;stroke-width:1px;stroke-linecap:butt;stroke-linejoin:miter;stroke-opacity:1"
       id="text4136"
       transform="matrix(0.01185598,0,0,0.01185598,315.29105,4186.4223)">
      <path
         d="m 392.50964,-299.06625 0,-10.81202 q -16.35205,13.76075 -34.93798,13.76075 -13.49268,0 -21.0879,-6.79102 -7.59521,-6.88037 -7.59521,-16.79883 0,-10.90136 10.00781,-19.03271 10.00781,-8.13135 29.21924,-8.13135 5.18262,0 11.25879,0.71484 6.07617,0.62549 13.13525,2.05518 l 0,-12.15234 q 0,-6.16553 -5.71875,-10.72266 -5.71875,-4.55713 -17.15625,-4.55713 -8.75683,0 -24.57275,5.09326 -2.85938,0.89356 -3.66357,0.89356 -1.42969,0 -2.50196,-1.07227 -0.98291,-1.07226 -0.98291,-2.68066 0,-1.51905 0.89356,-2.4126 1.25097,-1.34033 10.09716,-3.66357 13.93946,-3.75293 21.0879,-3.75293 14.20751,0 22.16015,7.05908 7.95264,6.96972 7.95264,15.81592 l 0,49.68164 10.00781,0 q 2.77002,0 3.93164,1.07226 1.16162,0.98291 1.16162,2.68067 0,1.6084 -1.16162,2.68066 -1.16162,1.07227 -3.93164,1.07227 l -17.60303,0 z m 0,-37.35059 q -5.27197,-1.51904 -11.16943,-2.23389 -5.89746,-0.71484 -12.42041,-0.71484 -16.35205,0 -25.55566,7.05908 -6.96973,5.27197 -6.96973,12.59912 0,6.79102 5.27197,11.4375 5.36133,4.64649 15.54785,4.64649 9.73975,0 18.04981,-3.84229 8.39941,-3.93164 17.2456,-12.42041 l 0,-16.53076 z"
         style="font-style:normal;font-variant:normal;font-weight:normal;font-stretch:normal;font-family:'Courier New';-inkscape-font-specification:'Courier New'"
         id="path4466"
         inkscape:connector-curvature="0" />
    </g>
    <g
       style="font-style:normal;font-weight:normal;font-size:183px;line-height:125%;font-family:sans-serif;letter-spacing:0px;word-spacing:0px;fill:#000000;fill-opacity:1;stroke:none;stroke-width:1px;stroke-linecap:butt;stroke-linejoin:miter;stroke-opacity:1"
       id="text4136-1"
       transform="matrix(0.01185598,0,0,0.01185598,315.29105,4184.2965)">
      <path
         d="m 347.02771,-215.87418 0,49.771 q 13.58203,-17.69238 32.79346,-17.69238 16.4414,0 28.14697,11.97363 11.70557,11.88428 11.70557,29.21924 0,17.51367 -11.88428,29.66601 -11.79492,12.15235 -27.96826,12.15235 -19.65821,0 -32.79346,-17.69239 l 0,14.74366 -17.60303,0 q -2.68066,0 -3.84228,-1.07227 -1.16162,-1.07226 -1.16162,-2.68066 0,-1.69776 1.16162,-2.68067 1.16162,-1.07226 3.84228,-1.07226 l 10.09717,0 0,-97.04004 -10.09717,0 q -2.68066,0 -3.84228,-1.07227 -1.16162,-1.07226 -1.16162,-2.77002 0,-1.60839 1.16162,-2.68066 1.16162,-1.07227 3.84228,-1.07227 l 17.60303,0 z m 65.14014,73.62891 q 0,-14.20752 -9.73975,-24.03662 -9.73975,-9.91846 -22.78564,-9.91846 -13.0459,0 -22.78565,9.91846 -9.73974,9.8291 -9.73974,24.03662 0,14.20752 9.73974,24.12598 9.73975,9.8291 22.78565,9.8291 13.04589,0 22.78564,-9.8291 9.73975,-9.91846 9.73975,-24.12598 z"
         style="font-style:normal;font-variant:normal;font-weight:normal;font-stretch:normal;font-family:'Courier New';-inkscape-font-specification:'Courier New'"
         id="path4463"
         inkscape:connector-curvature="0" />
    </g>
    <g
       style="font-style:normal;font-weight:normal;font-size:183px;line-height:125%;font-family:sans-serif;letter-spacing:0px;word-spacing:0px;fill:#000000;fill-opacity:1;stroke:none;stroke-width:1px;stroke-linecap:butt;stroke-linejoin:miter;stroke-opacity:1"
       id="text4136-3"
       transform="matrix(0.01185598,0,0,0.01185598,315.29105,4182.1709)">
      <path
         d="m 401.53455,-10.264469 0,-2.501953 q 0,-2.77002 1.07226,-3.931641 1.07227,-1.161621 2.68067,-1.161621 1.69775,0 2.77002,1.161621 1.07226,1.161621 1.07226,3.931641 l 0,16.9775388 q -0.0893,2.7700195 -1.16162,3.9316406 -0.98291,1.1616211 -2.68066,1.1616211 -1.51905,0 -2.59131,-0.9829101 -0.98291,-1.0722657 -1.16162,-3.4848633 -0.53614,-6.3442383 -8.39942,-12.0629883 -7.77392,-5.7187498 -20.99853,-5.7187498 -16.70948,0 -25.37696,10.4545896 -8.66748,10.4545899 -8.66748,23.9472654 0,14.564942 9.56104,24.036621 9.56103,9.47168 24.75146,9.47168 8.75684,0 17.78174,-3.216797 9.11426,-3.216797 16.44141,-10.365234 1.87646,-1.78711 3.30615,-1.78711 1.51904,0 2.50195,1.072266 1.07227,0.98291 1.07227,2.501953 0,3.842285 -9.0249,9.739746 -14.56495,9.561035 -32.43604,9.561035 -18.13916,0 -29.84473,-11.526855 -11.61621,-11.616211 -11.61621,-29.397949 0,-18.1391604 11.88428,-30.1127932 11.97363,-11.9736328 30.11279,-11.9736328 17.24561,0 28.95118,10.275879 z"
         style="font-style:normal;font-variant:normal;font-weight:normal;font-stretch:normal;font-family:'Courier New';-inkscape-font-specification:'Courier New'"
         id="path4460"
         inkscape:connector-curvature="0" />
    </g>
    <g
       style="font-style:normal;font-weight:normal;font-size:183px;line-height:125%;font-family:sans-serif;letter-spacing:0px;word-spacing:0px;fill:#000000;fill-opacity:1;stroke:none;stroke-width:1px;stroke-linecap:butt;stroke-linejoin:miter;stroke-opacity:1"
       id="text4136-8"
       transform="matrix(0.01185598,0,0,0.01185598,315.29105,4180.0451)">
      <path
         d="m 404.70667,142.71428 0,104.63525 10.00781,0 q 2.77002,0 3.93164,1.07227 1.16162,0.98291 1.16162,2.68066 0,1.6084 -1.16162,2.68067 -1.16162,1.07226 -3.93164,1.07226 l -17.60303,0 0,-14.92236 q -13.0459,17.87109 -33.15088,17.87109 -10.18652,0 -19.56885,-5.36133 -9.29297,-5.45068 -14.74365,-15.45849 -5.36133,-10.00781 -5.36133,-20.64111 0,-10.72266 5.36133,-20.64112 5.45068,-10.00781 14.74365,-15.45849 9.38233,-5.45069 19.65821,-5.45069 19.6582,0 33.06152,17.8711 l 0,-42.3545 -10.00781,0 q -2.77002,0 -3.93164,-1.07226 -1.16162,-1.07227 -1.16162,-2.77002 0,-1.6084 1.16162,-2.68067 1.16162,-1.07226 3.93164,-1.07226 l 17.60303,0 z m -7.59522,73.62891 q 0,-14.29688 -9.65039,-24.12598 -9.65039,-9.8291 -22.96436,-9.8291 -13.40332,0 -23.05371,9.8291 -9.65039,9.8291 -9.65039,24.12598 0,14.20751 9.65039,24.12597 9.65039,9.8291 23.05371,9.8291 13.31397,0 22.96436,-9.8291 9.65039,-9.91846 9.65039,-24.12597 z"
         style="font-style:normal;font-variant:normal;font-weight:normal;font-stretch:normal;font-family:'Courier New';-inkscape-font-specification:'Courier New'"
         id="path4457"
         inkscape:connector-curvature="0" />
    </g>
    <g
       style="font-style:normal;font-weight:normal;font-size:183px;line-height:125%;font-family:sans-serif;letter-spacing:0px;word-spacing:0px;fill:#000000;fill-opacity:1;stroke:none;stroke-width:1px;stroke-linecap:butt;stroke-linejoin:miter;stroke-opacity:1"
       id="text4136-6"
       transform="matrix(0.01185598,0,0,0.01185598,315.29105,4177.9194)">
      <path
         d="m 413.99963,381.20621 -76.48828,0 q 1.96582,14.56494 12.15235,23.50049 10.27588,8.84619 25.37695,8.84619 8.39941,0 17.60303,-2.77002 9.20361,-2.77002 15.01172,-7.32715 1.69775,-1.34033 2.94873,-1.34033 1.42968,0 2.50195,1.16162 1.07226,1.07226 1.07226,2.59131 0,1.51904 -1.42968,2.94873 -4.28907,4.46777 -15.27979,8.39941 -10.90137,3.84229 -22.42822,3.84229 -19.30078,0 -32.25732,-12.59912 -12.86719,-12.68848 -12.86719,-30.64893 0,-16.35205 12.06299,-28.05762 12.15234,-11.70556 30.02343,-11.70556 18.40723,0 30.29151,12.06298 11.88427,11.97364 11.70556,31.09571 z m -7.59521,-7.59522 q -2.23389,-12.42041 -11.79492,-20.19433 -9.47168,-7.77393 -22.60694,-7.77393 -13.13525,0 -22.60693,7.68457 -9.47168,7.68457 -11.79492,20.28369 l 68.80371,0 z"
         style="font-style:normal;font-variant:normal;font-weight:normal;font-stretch:normal;font-family:'Courier New';-inkscape-font-specification:'Courier New'"
         id="path4454"
         inkscape:connector-curvature="0" />
    </g>
    <g
       style="font-style:normal;font-weight:normal;font-size:183px;line-height:125%;font-family:sans-serif;letter-spacing:0px;word-spacing:0px;fill:#000000;fill-opacity:1;stroke:none;stroke-width:1px;stroke-linecap:butt;stroke-linejoin:miter;stroke-opacity:1"
       id="text4136-35"
       transform="matrix(0.01185598,0,0,0.01185598,315.29105,4175.7938)">
      <path
         d="m 362.62024,545.13123 0,62.28076 32.97217,0 q 2.68066,0 3.84228,1.07226 1.16162,0.98291 1.16162,2.68067 0,1.6084 -1.16162,2.68066 -1.16162,1.07227 -3.84228,1.07227 l -58.70655,0 q -2.68066,0 -3.84228,-1.07227 -1.16162,-1.07226 -1.16162,-2.68066 0,-1.69776 1.16162,-2.68067 1.16162,-1.07226 3.84228,-1.07226 l 18.13916,0 0,-62.28076 -16.26269,0 q -2.68066,0 -3.84229,-1.07227 -1.16162,-1.07227 -1.16162,-2.77002 0,-1.6084 1.16162,-2.68066 1.16163,-1.07227 3.84229,-1.07227 l 16.26269,0 0,-11.34814 q 0,-9.47168 7.68457,-16.44141 7.68458,-6.96973 20.37305,-6.96973 10.6333,0 22.69629,1.96582 4.55713,0.71485 5.45068,1.69776 0.98291,0.98291 0.98291,2.59131 0,1.60839 -1.07226,2.68066 -1.07227,0.98291 -2.85938,0.98291 -0.71484,0 -2.41259,-0.26807 -13.49268,-2.05517 -22.78565,-2.05517 -9.8291,0 -15.19043,4.82519 -5.27197,4.8252 -5.27197,10.99073 l 0,11.34814 35.1167,0 q 2.68066,0 3.84228,1.07227 1.16162,1.07226 1.16162,2.77002 0,1.60839 -1.16162,2.68066 -1.16162,1.07227 -3.84228,1.07227 l -35.1167,0 z"
         style="font-style:normal;font-variant:normal;font-weight:normal;font-stretch:normal;font-family:'Courier New';-inkscape-font-specification:'Courier New'"
         id="path4451"
         inkscape:connector-curvature="0" />
    </g>
    <g
       style="font-style:normal;font-weight:normal;font-size:183px;line-height:125%;font-family:sans-serif;letter-spacing:0px;word-spacing:0px;fill:#000000;fill-opacity:1;stroke:none;stroke-width:1px;stroke-linecap:butt;stroke-linejoin:miter;stroke-opacity:1"
       id="text4136-35-9"
       transform="matrix(0.01185598,0,0,0.01185598,315.29105,4173.668)">
      <path
         d="m 395.23499,697.30579 0,-13.76075 17.60302,0 q 2.68067,0 3.84229,1.07227 1.16162,1.07227 1.16162,2.77002 0,1.6084 -1.16162,2.68066 -1.16162,1.07227 -3.84229,1.07227 l -10.09717,0 0,74.96924 q 0,7.50586 -3.21679,13.40332 -2.14453,3.93164 -7.14844,8.13135 -5.00391,4.1997 -9.11426,5.98681 -4.11035,1.78711 -10.99072,1.78711 l -21.2666,0 q -2.68067,0 -3.84229,-1.07226 -1.16162,-0.98291 -1.16162,-2.68067 0,-1.69775 1.16162,-2.77002 1.16162,-1.07226 3.84229,-1.07226 l 21.53467,0.0893 q 6.6123,0 11.88427,-3.39551 5.36133,-3.3955 8.8462,-9.91845 1.96582,-3.75293 1.96582,-9.56104 l 0,-22.51758 q -12.06299,16.53077 -31.09571,16.53077 -15.45849,0 -26.71728,-11.4375 -11.16944,-11.52686 -11.16944,-27.7002 0,-16.17334 11.16944,-27.61084 11.25879,-11.4375 26.71728,-11.4375 19.03272,0 31.09571,16.44141 z m 0,22.60693 q 0,-13.22461 -9.11426,-22.33887 -9.0249,-9.11426 -21.62403,-9.11426 -12.59912,0 -21.62402,9.20362 -9.0249,9.11426 -9.0249,22.24951 0,13.22461 9.0249,22.42822 9.0249,9.11426 21.62402,9.11426 12.59913,0 21.62403,-9.11426 9.11426,-9.20361 9.11426,-22.42822 z"
         style="font-style:normal;font-variant:normal;font-weight:normal;font-stretch:normal;font-family:'Courier New';-inkscape-font-specification:'Courier New'"
         id="path4448"
         inkscape:connector-curvature="0" />
    </g>
    <g
       style="font-style:normal;font-weight:normal;font-size:183px;line-height:125%;font-family:sans-serif;letter-spacing:0px;word-spacing:0px;fill:#000000;fill-opacity:1;stroke:none;stroke-width:1px;stroke-linecap:butt;stroke-linejoin:miter;stroke-opacity:1"
       id="text4136-35-4"
       transform="matrix(0.01185598,0,0,0.01185598,315.29105,4171.5423)">
      <path
         d="m 347.83191,861.36487 0,46.19678 q 7.14844,-7.77393 13.67139,-10.90137 6.6123,-3.2168 14.74365,-3.2168 8.75683,0 14.83301,3.12744 6.16552,3.03809 10.27587,9.47168 4.11036,6.34424 4.11036,13.40332 l 0,46.5542 8.39941,0 q 2.77002,0 3.84229,1.07227 1.16162,0.98291 1.16162,2.68066 0,1.6084 -1.16162,2.68067 -1.07227,1.07226 -3.84229,1.07226 l -24.39404,0 q -2.77002,0 -3.93164,-1.07226 -1.16162,-1.07227 -1.16162,-2.68067 0,-1.69775 1.16162,-2.68066 1.16162,-1.07227 3.93164,-1.07227 l 8.39941,0 0,-46.01806 q 0,-8.13135 -5.89746,-13.58204 -5.8081,-5.45068 -16.26269,-5.45068 -8.22071,0 -14.02881,4.021 -4.19971,2.85937 -13.8501,13.49267 l 0,47.53711 8.48877,0 q 2.68066,0 3.84228,1.07227 1.16162,0.98291 1.16162,2.68066 0,1.6084 -1.16162,2.68067 -1.16162,1.07226 -3.84228,1.07226 l -24.4834,0 q -2.68066,0 -3.84228,-1.07226 -1.16163,-1.07227 -1.16163,-2.68067 0,-1.69775 1.16163,-2.68066 1.16162,-1.07227 3.84228,-1.07227 l 8.48877,0 0,-97.04004 -10.09717,0 q -2.68066,0 -3.84228,-1.07226 -1.16162,-1.07227 -1.16162,-2.77002 0,-1.6084 1.16162,-2.68067 1.16162,-1.07226 3.84228,-1.07226 l 17.60303,0 z"
         style="font-style:normal;font-variant:normal;font-weight:normal;font-stretch:normal;font-family:'Courier New';-inkscape-font-specification:'Courier New'"
         id="path4445"
         inkscape:connector-curvature="0" />
    </g>
    <g
       style="font-style:normal;font-weight:normal;font-size:183px;line-height:125%;font-family:sans-serif;letter-spacing:0px;word-spacing:0px;fill:#000000;fill-opacity:1;stroke:none;stroke-width:1px;stroke-linecap:butt;stroke-linejoin:miter;stroke-opacity:1"
       id="text4136-35-90"
       transform="matrix(0.01185598,0,0,0.01185598,315.29105,4169.4167)">
      <path
         d="m 375.48743,1038.7823 0,19.3902 -11.08008,0 0,-19.3902 11.08008,0 z m 0.26806,38.5123 0,69.8759 29.48731,0 q 2.77002,0 3.93164,1.0723 1.16162,0.9829 1.16162,2.6807 0,1.6084 -1.16162,2.6806 -1.16162,1.0723 -3.93164,1.0723 l -66.48047,0 q -2.68066,0 -3.84229,-1.0723 -1.16162,-1.0722 -1.16162,-2.6806 0,-1.6978 1.16162,-2.6807 1.16163,-1.0723 3.84229,-1.0723 l 29.4873,0 0,-62.2807 -21.89209,0 q -2.68066,0 -3.93164,-1.0723 -1.16162,-1.0723 -1.16162,-2.6807 0,-1.6977 1.16162,-2.77 1.16162,-1.0722 3.93164,-1.0722 l 29.39795,0 z"
         style="font-style:normal;font-variant:normal;font-weight:normal;font-stretch:normal;font-family:'Courier New';-inkscape-font-specification:'Courier New'"
         id="path4442"
         inkscape:connector-curvature="0" />
    </g>
    <g
       style="font-style:normal;font-weight:normal;font-size:183px;line-height:125%;font-family:sans-serif;letter-spacing:0px;word-spacing:0px;fill:#000000;fill-opacity:1;stroke:none;stroke-width:1px;stroke-linecap:butt;stroke-linejoin:miter;stroke-opacity:1"
       id="text4136-35-43"
       transform="matrix(0.01185598,0,0,0.01185598,315.29105,4167.2909)">
      <path
         d="m 392.86707,1200.8309 0,19.3902 -11.08008,0 0,-19.3902 11.08008,0 z m 0.44677,46.1075 -44.58838,0 q -2.68066,0 -3.84228,-1.0723 -1.16162,-1.0723 -1.16162,-2.77 0,-1.6084 1.07226,-2.6807 1.16162,-1.0723 3.93164,-1.0723 l 52.09424,0 0,82.6538 q 0,9.5611 -3.93164,15.9947 -3.93164,6.4336 -11.79492,10.4546 -5.45068,2.77 -12.95654,2.77 l -23.85791,0 q -2.68067,0 -3.84229,-1.0723 -1.16162,-0.9829 -1.16162,-2.6806 0,-1.6978 1.16162,-2.7701 1.16162,-1.0722 3.84229,-1.0722 l 23.6792,0.089 q 9.56103,0 15.45849,-6.2549 5.89746,-6.2548 5.89746,-15.4585 l 0,-75.0585 z"
         style="font-style:normal;font-variant:normal;font-weight:normal;font-stretch:normal;font-family:'Courier New';-inkscape-font-specification:'Courier New'"
         id="path4439"
         inkscape:connector-curvature="0" />
    </g>
    <g
       style="font-style:normal;font-weight:normal;font-size:183px;line-height:125%;font-family:sans-serif;letter-spacing:0px;word-spacing:0px;fill:#000000;fill-opacity:1;stroke:none;stroke-width:1px;stroke-linecap:butt;stroke-linejoin:miter;stroke-opacity:1"
       id="text4136-35-7"
       transform="matrix(0.01185598,0,0,0.01185598,315.29105,4165.1651)">
      <path
         d="m 350.87,1477.9694 0,33.4189 -17.60303,0 q -2.68067,0 -3.84229,-1.0723 -1.16162,-1.0722 -1.16162,-2.6806 0,-1.6978 1.16162,-2.6807 1.16162,-1.0723 3.84229,-1.0723 l 10.09717,0 0,-97.04 -10.09717,0 q -2.68067,0 -3.84229,-1.0723 -1.16162,-1.0722 -1.16162,-2.77 0,-1.6084 1.16162,-2.6806 1.16162,-1.0723 3.84229,-1.0723 l 17.60303,0 0,69.1611 31.8999,-26.8066 -3.84229,0 q -2.68066,0 -3.84228,-1.0723 -1.16162,-1.0722 -1.16162,-2.6806 0,-1.6978 1.16162,-2.7701 1.16162,-1.0722 3.84228,-1.0722 l 24.03662,0 q 2.77002,0 3.93164,1.0722 1.16163,1.0723 1.16163,2.7701 0,1.6084 -1.16163,2.6806 -1.16162,1.0723 -3.93164,1.0723 l -8.66748,0 -29.30859,24.4834 37.08252,37.7973 8.66748,0 q 2.77002,0 3.93164,1.0723 1.16162,0.9829 1.16162,2.6807 0,1.6084 -1.16162,2.6806 -1.16162,1.0723 -3.93164,1.0723 l -24.30469,0 q -2.68066,0 -3.84228,-1.0723 -1.16162,-1.0722 -1.16162,-2.6806 0,-1.6978 1.16162,-2.6807 1.16162,-1.0723 3.84228,-1.0723 l 5.27197,0 -32.25732,-33.1508 -8.57812,7.2378 z"
         style="font-style:normal;font-variant:normal;font-weight:normal;font-stretch:normal;font-family:'Courier New';-inkscape-font-specification:'Courier New'"
         id="path4436"
         inkscape:connector-curvature="0" />
    </g>
    <g
       style="font-style:normal;font-weight:normal;font-size:183px;line-height:125%;font-family:sans-serif;letter-spacing:0px;word-spacing:0px;fill:#000000;fill-opacity:1;stroke:none;stroke-width:1px;stroke-linecap:butt;stroke-linejoin:miter;stroke-opacity:1"
       id="text4136-35-6"
       transform="matrix(0.01185598,0,0,0.01185598,315.29105,4163.0395)">
      <path
         d="m 375.75549,1578.5411 0,104.6353 29.48731,0 q 2.77002,0 3.93164,1.0723 1.16162,0.9829 1.16162,2.6806 0,1.6084 -1.16162,2.6807 -1.16162,1.0723 -3.93164,1.0723 l -66.48047,0 q -2.68066,0 -3.84229,-1.0723 -1.16162,-1.0723 -1.16162,-2.6807 0,-1.6977 1.16162,-2.6806 1.16163,-1.0723 3.84229,-1.0723 l 29.4873,0 0,-97.04 -21.62402,0 q -2.68066,0 -3.93164,-1.0723 -1.16162,-1.0723 -1.16162,-2.77 0,-1.6084 1.16162,-2.6807 1.16162,-1.0723 3.93164,-1.0723 l 29.12988,0 z"
         style="font-style:normal;font-variant:normal;font-weight:normal;font-stretch:normal;font-family:'Courier New';-inkscape-font-specification:'Courier New'"
         id="path4433"
         inkscape:connector-curvature="0" />
    </g>
    <g
       style="font-style:normal;font-weight:normal;font-size:183px;line-height:125%;font-family:sans-serif;letter-spacing:0px;word-spacing:0px;fill:#000000;fill-opacity:1;stroke:none;stroke-width:1px;stroke-linecap:butt;stroke-linejoin:miter;stroke-opacity:1"
       id="text4136-35-74"
       transform="matrix(0.01185598,0,0,0.01185598,315.29105,4160.9138)">
      <path
         d="m 337.55603,1776.5553 0,7.5952 q 9.56104,-10.2759 19.21143,-10.2759 5.8081,0 10.18652,3.1275 4.37842,3.0381 7.32715,9.2929 5.0039,-6.2548 10.09717,-9.2929 5.18261,-3.1275 10.36523,-3.1275 8.13135,0 12.95654,5.272 6.34424,6.791 6.34424,14.833 l 0,52.4517 6.34424,0 q 2.68066,0 3.84228,1.0722 1.16163,0.983 1.16163,2.6807 0,1.6084 -1.16163,2.6807 -1.16162,1.0722 -3.84228,1.0722 l -13.8501,0 0,-59.2426 q 0,-5.7188 -3.48486,-9.4717 -3.48486,-3.753 -8.04199,-3.753 -4.11035,0 -8.66748,3.1275 -4.55713,3.0381 -10.36524,12.063 l 0,49.771 6.25488,0 q 2.68067,0 3.84229,1.0722 1.16162,0.983 1.16162,2.6807 0,1.6084 -1.16162,2.6807 -1.16162,1.0722 -3.84229,1.0722 l -13.85009,0 0,-58.7065 q 0,-5.9868 -3.57422,-9.8291 -3.48487,-3.9317 -7.86328,-3.9317 -4.021,0 -7.95264,2.5914 -5.45068,3.6635 -11.4375,12.5991 l 0,49.771 6.34424,0 q 2.68066,0 3.84228,1.0722 1.16162,0.983 1.16162,2.6807 0,1.6084 -1.16162,2.6807 -1.16162,1.0722 -3.84228,1.0722 l -20.19434,0 q -2.68066,0 -3.84228,-1.0722 -1.16162,-1.0723 -1.16162,-2.6807 0,-1.6977 1.16162,-2.6807 1.16162,-1.0722 3.84228,-1.0722 l 6.34424,0 0,-62.2808 -6.34424,0 q -2.68066,0 -3.84228,-1.0723 -1.16162,-1.0722 -1.16162,-2.77 0,-1.6084 1.16162,-2.6806 1.16162,-1.0723 3.84228,-1.0723 l 13.8501,0 z"
         style="font-style:normal;font-variant:normal;font-weight:normal;font-stretch:normal;font-family:'Courier New';-inkscape-font-specification:'Courier New'"
         id="path4430"
         inkscape:connector-curvature="0" />
    </g>
    <g
       style="font-style:normal;font-weight:normal;font-size:183px;line-height:125%;font-family:sans-serif;letter-spacing:0px;word-spacing:0px;fill:#000000;fill-opacity:1;stroke:none;stroke-width:1px;stroke-linecap:butt;stroke-linejoin:miter;stroke-opacity:1"
       id="text4136-35-92"
       transform="matrix(0.01185598,0,0,0.01185598,315.29105,4158.788)">
      <path
         d="m 348.23401,1955.8492 0,11.3482 q 7.86328,-7.9526 14.20752,-10.9907 6.34424,-3.0381 14.29687,-3.0381 8.57813,0 15.63721,3.6636 5.00391,2.6806 9.0249,8.9355 4.11035,6.1655 4.11035,12.6885 l 0,47.269 6.34424,0 q 2.68067,0 3.84229,1.0723 1.16162,0.9829 1.16162,2.6806 0,1.6084 -1.16162,2.6807 -1.16162,1.0723 -3.84229,1.0723 l -20.10498,0 q -2.77002,0 -3.93164,-1.0723 -1.16162,-1.0723 -1.16162,-2.6807 0,-1.6977 1.16162,-2.6806 1.16162,-1.0723 3.93164,-1.0723 l 6.25488,0 0,-46.018 q 0,-7.9527 -5.8081,-13.4034 -5.80811,-5.54 -15.54785,-5.54 -7.41651,0 -12.86719,3.0381 -5.45068,2.9487 -15.54785,14.833 l 0,47.0903 8.48877,0 q 2.68066,0 3.84228,1.0723 1.16162,0.9829 1.16162,2.6806 0,1.6084 -1.16162,2.6807 -1.16162,1.0723 -3.84228,1.0723 l -24.4834,0 q -2.68066,0 -3.84229,-1.0723 -1.16162,-1.0723 -1.16162,-2.6807 0,-1.6977 1.16162,-2.6806 1.16163,-1.0723 3.84229,-1.0723 l 8.48877,0 0,-62.2807 -6.34424,0 q -2.68066,0 -3.84228,-1.0723 -1.16163,-1.0723 -1.16163,-2.77 0,-1.6084 1.16163,-2.6807 1.16162,-1.0723 3.84228,-1.0723 l 13.8501,0 z"
         style="font-style:normal;font-variant:normal;font-weight:normal;font-stretch:normal;font-family:'Courier New';-inkscape-font-specification:'Courier New'"
         id="path4427"
         inkscape:connector-curvature="0" />
    </g>
    <g
       style="font-style:normal;font-weight:normal;font-size:183px;line-height:125%;font-family:sans-serif;letter-spacing:0px;word-spacing:0px;fill:#000000;fill-opacity:1;stroke:none;stroke-width:1px;stroke-linecap:butt;stroke-linejoin:miter;stroke-opacity:1"
       id="text4136-35-92-9"
       transform="matrix(0.01185598,0,0,0.01185598,315.29105,4156.6624)">
      <path
         d="m 413.99963,2172.5386 q 0,17.1562 -12.33105,29.3086 -12.2417,12.1523 -29.57666,12.1523 -17.51367,0 -29.75537,-12.1523 -12.2417,-12.2417 -12.2417,-29.3086 0,-17.1563 12.2417,-29.3086 12.2417,-12.2417 29.75537,-12.2417 17.33496,0 29.57666,12.1523 12.33105,12.1524 12.33105,29.398 z m -7.59521,0 q 0,-14.1182 -10.09717,-24.0366 -10.00781,-9.9185 -24.30469,-9.9185 -14.29687,0 -24.39404,10.0078 -10.00781,9.9185 -10.00781,23.9473 0,13.9394 10.00781,23.9472 10.09717,10.0079 24.39404,10.0079 14.29688,0 24.30469,-9.9185 10.09717,-10.0078 10.09717,-24.0366 z"
         style="font-style:normal;font-variant:normal;font-weight:normal;font-stretch:normal;font-family:'Courier New';-inkscape-font-specification:'Courier New'"
         id="path4424"
         inkscape:connector-curvature="0" />
    </g>
    <g
       style="font-style:normal;font-weight:normal;font-size:183px;line-height:125%;font-family:sans-serif;letter-spacing:0px;word-spacing:0px;fill:#000000;fill-opacity:1;stroke:none;stroke-width:1px;stroke-linecap:butt;stroke-linejoin:miter;stroke-opacity:1"
       id="text4136-35-92-2"
       transform="matrix(0.01185598,0,0,0.01185598,315.29105,4154.5366)">
      <path
         d="m 347.02771,2297.1919 0,13.6714 q 6.70166,-8.1314 14.38623,-12.2417 7.68457,-4.1104 18.13916,-4.1104 11.08008,0 20.4624,5.1826 9.38233,5.1827 14.47559,14.4756 5.18262,9.2036 5.18262,19.3902 0,16.1733 -11.61621,27.7002 -11.52686,11.4375 -28.41504,11.4375 -20.10498,0 -32.61475,-16.3521 l 0,45.2139 18.22852,0 q 2.68066,0 3.84228,0.9829 1.16162,1.0723 1.16162,2.77 0,1.6084 -1.16162,2.6807 -1.16162,1.0722 -3.84228,1.0722 l -35.83155,0 q -2.68066,0 -3.84228,-1.0722 -1.16162,-0.9829 -1.16162,-2.6807 0,-1.6977 1.16162,-2.77 1.16162,-0.9829 3.84228,-0.9829 l 10.09717,0 0,-96.772 -10.09717,0 q -2.68066,0 -3.84228,-1.0723 -1.16162,-1.0722 -1.16162,-2.77 0,-1.6084 1.16162,-2.6806 1.16162,-1.0723 3.84228,-1.0723 l 17.60303,0 z m 65.05078,36.3677 q 0,-12.9566 -9.47168,-22.1602 -9.38232,-9.293 -22.96435,-9.293 -13.67139,0 -23.14307,9.293 -9.47168,9.293 -9.47168,22.1602 0,12.9565 9.47168,22.2495 9.47168,9.293 23.14307,9.293 13.49267,0 22.96435,-9.2037 9.47168,-9.2929 9.47168,-22.3388 z"
         style="font-style:normal;font-variant:normal;font-weight:normal;font-stretch:normal;font-family:'Courier New';-inkscape-font-specification:'Courier New'"
         id="path4421"
         inkscape:connector-curvature="0" />
    </g>
    <g
       style="font-style:normal;font-weight:normal;font-size:183px;line-height:125%;font-family:sans-serif;letter-spacing:0px;word-spacing:0px;fill:#000000;fill-opacity:1;stroke:none;stroke-width:1px;stroke-linecap:butt;stroke-linejoin:miter;stroke-opacity:1"
       id="text4136-35-92-7"
       transform="matrix(0.01185598,0,0,0.01185598,315.29105,4152.4109)">
      <path
         d="m 396.97742,2490.1572 0,-13.6714 17.60302,0 q 2.77002,0 3.93164,1.0723 1.16163,1.0723 1.16163,2.77 0,1.6084 -1.16163,2.6807 -1.16162,1.0723 -3.93164,1.0723 l -10.00781,0 0,96.7719 10.00781,0 q 2.77002,0 3.93164,0.9829 1.16163,1.0723 1.16163,2.7701 0,1.6084 -1.16163,2.6806 -1.16162,1.0723 -3.93164,1.0723 l -35.74218,0 q -2.68067,0 -3.84229,-1.0723 -1.16162,-0.9829 -1.16162,-2.6806 0,-1.6978 1.16162,-2.7701 1.16162,-0.9829 3.84229,-0.9829 l 18.13916,0 0,-45.2138 q -12.42041,16.352 -32.61475,16.352 -16.79883,0 -28.41504,-11.4375 -11.52685,-11.5268 -11.52685,-27.7002 0,-16.2627 11.52685,-27.6108 11.61621,-11.4375 28.59375,-11.4375 20.01563,0 32.43604,16.352 z m 0,22.6963 q 0,-12.9565 -9.47168,-22.1601 -9.47168,-9.293 -23.05371,-9.293 -13.58203,0 -23.05371,9.293 -9.47168,9.2036 -9.47168,22.1601 0,12.9566 9.47168,22.2495 9.47168,9.293 23.05371,9.293 13.58203,0 23.05371,-9.293 9.47168,-9.2929 9.47168,-22.2495 z"
         style="font-style:normal;font-variant:normal;font-weight:normal;font-stretch:normal;font-family:'Courier New';-inkscape-font-specification:'Courier New'"
         id="path4418"
         inkscape:connector-curvature="0" />
    </g>
    <g
       style="font-style:normal;font-weight:normal;font-size:183px;line-height:125%;font-family:sans-serif;letter-spacing:0px;word-spacing:0px;fill:#000000;fill-opacity:1;stroke:none;stroke-width:1px;stroke-linecap:butt;stroke-linejoin:miter;stroke-opacity:1"
       id="text4136-35-92-7-6"
       transform="matrix(0.01185598,0,0,0.01185598,315.29105,4150.2853)">
      <path
         d="m 360.56506,2672.6235 0,18.9434 q 14.6543,-13.2246 21.89209,-16.9775 7.32715,-3.8423 13.49268,-3.8423 6.70166,0 12.42041,4.5571 5.8081,4.4678 5.8081,6.791 0,1.6978 -1.16162,2.8594 -1.07226,1.0723 -2.77002,1.0723 -0.89355,0 -1.51904,-0.2681 -0.62549,-0.3574 -2.32324,-2.0552 -3.12744,-3.1274 -5.45068,-4.289 -2.32325,-1.1617 -4.55713,-1.1617 -4.91455,0 -11.88428,3.9317 -6.88037,3.9316 -23.94727,19.2114 l 0,41.1035 33.24024,0 q 2.77002,0 3.93164,1.0723 1.16162,0.9829 1.16162,2.6806 0,1.6084 -1.16162,2.6807 -1.16162,1.0723 -3.93164,1.0723 l -58.88526,0 q -2.68066,0 -3.84228,-0.9829 -1.16162,-1.0723 -1.16162,-2.6807 0,-1.519 1.07226,-2.502 1.16162,-1.0722 3.93164,-1.0722 l 18.13916,0 0,-62.5488 -13.85009,0 q -2.68067,0 -3.84229,-1.0723 -1.16162,-1.0723 -1.16162,-2.77 0,-1.6084 1.07227,-2.6807 1.16162,-1.0723 3.93164,-1.0723 l 21.35595,0 z"
         style="font-style:normal;font-variant:normal;font-weight:normal;font-stretch:normal;font-family:'Courier New';-inkscape-font-specification:'Courier New'"
         id="path4415"
         inkscape:connector-curvature="0" />
    </g>
    <g
       style="font-style:normal;font-weight:normal;font-size:183px;line-height:125%;font-family:sans-serif;letter-spacing:0px;word-spacing:0px;fill:#000000;fill-opacity:1;stroke:none;stroke-width:1px;stroke-linecap:butt;stroke-linejoin:miter;stroke-opacity:1"
       id="text4136-35-92-7-6-7"
       transform="matrix(0.01185598,0,0,0.01185598,315.29105,4148.1595)">
      <path
         d="m 396.84338,2855.7598 q 0,-2.5913 1.07227,-3.753 1.07227,-1.1616 2.68066,-1.1616 1.69776,0 2.77002,1.1616 1.07227,1.1617 1.07227,3.9317 l 0,12.8672 q 0,2.6806 -1.07227,3.8422 -1.07226,1.1617 -2.77002,1.1617 -1.51904,0 -2.59131,-0.9829 -0.98291,-0.9829 -1.16162,-3.2168 -0.53613,-5.3614 -5.54004,-8.8462 -7.32714,-5.0039 -19.39013,-5.0039 -12.59912,0 -19.56885,5.0932 -5.27197,3.8423 -5.27197,8.5782 0,5.3613 6.25488,8.9355 4.28906,2.502 16.2627,3.8423 15.6372,1.6977 21.71337,3.8423 8.66749,3.1274 12.86719,8.6675 4.28906,5.54 4.28906,11.9736 0,9.561 -9.20361,17.0669 -9.20361,7.4165 -26.98535,7.4165 -17.78174,0 -29.12988,-9.0249 0,3.0381 -0.35742,3.9316 -0.35743,0.8936 -1.34034,1.5191 -0.89355,0.6255 -2.05517,0.6255 -1.6084,0 -2.68067,-1.1617 -1.07226,-1.1616 -1.07226,-3.8423 l 0,-15.4585 q 0,-2.6806 0.98291,-3.8422 1.07226,-1.1617 2.77002,-1.1617 1.6084,0 2.68066,1.1617 1.16162,1.0722 1.16162,2.9487 0,4.1103 2.05518,6.8804 3.12744,4.289 9.91846,7.1484 6.88037,2.77 16.79882,2.77 14.6543,0 21.80274,-5.4507 7.14844,-5.4506 7.14844,-11.5268 0,-6.9697 -7.2378,-11.1695 -7.32715,-4.1997 -21.35595,-5.6293 -13.93946,-1.4297 -20.01563,-3.753 -6.07617,-2.3232 -9.47168,-6.9697 -3.39551,-4.6465 -3.39551,-10.0078 0,-9.6504 9.47168,-15.2798 9.47168,-5.7187 22.60694,-5.7187 15.54785,0 25.28759,7.5952 z"
         style="font-style:normal;font-variant:normal;font-weight:normal;font-stretch:normal;font-family:'Courier New';-inkscape-font-specification:'Courier New'"
         id="path4412"
         inkscape:connector-curvature="0" />
    </g>
    <g
       style="font-style:normal;font-weight:normal;font-size:183px;line-height:125%;font-family:sans-serif;letter-spacing:0px;word-spacing:0px;fill:#000000;fill-opacity:1;stroke:none;stroke-width:1px;stroke-linecap:butt;stroke-linejoin:miter;stroke-opacity:1"
       id="text4136-35-92-7-6-5"
       transform="matrix(0.01185598,0,0,0.01185598,315.29105,4146.0338)">
      <path
         d="m 356.63342,3042.3813 40.7461,0 q 2.68066,0 3.84228,1.0723 1.16162,1.0723 1.16162,2.77 0,1.6084 -1.16162,2.6807 -1.16162,1.0723 -3.84228,1.0723 l -40.7461,0 0,49.9497 q 0,6.5229 5.18262,10.9013 5.27197,4.3785 15.36914,4.3785 7.59522,0 16.44141,-2.2339 8.84619,-2.3233 13.76074,-5.1826 1.78711,-1.1617 2.94873,-1.1617 1.42969,0 2.50195,1.1617 1.07227,1.0722 1.07227,2.5913 0,1.3403 -1.16162,2.5019 -2.85938,2.9487 -13.93946,6.4336 -10.99072,3.3955 -21.08789,3.3955 -13.13525,0 -20.90918,-6.1655 -7.77392,-6.1655 -7.77392,-16.6201 l 0,-49.9497 -13.8501,0 q -2.68066,0 -3.84228,-1.0723 -1.16163,-1.0723 -1.16163,-2.77 0,-1.6084 1.16163,-2.6807 1.16162,-1.0723 3.84228,-1.0723 l 13.8501,0 0,-22.1601 q 0,-2.6807 1.07226,-3.8423 1.07227,-1.1616 2.68067,-1.1616 1.69775,0 2.77002,1.1616 1.07226,1.1616 1.07226,3.8423 l 0,22.1601 z"
         style="font-style:normal;font-variant:normal;font-weight:normal;font-stretch:normal;font-family:'Courier New';-inkscape-font-specification:'Courier New'"
         id="path4409"
         inkscape:connector-curvature="0" />
    </g>
    <g
       style="font-style:normal;font-weight:normal;font-size:183px;line-height:125%;font-family:sans-serif;letter-spacing:0px;word-spacing:0px;fill:#000000;fill-opacity:1;stroke:none;stroke-width:1px;stroke-linecap:butt;stroke-linejoin:miter;stroke-opacity:1"
       id="text4136-35-92-7-6-8"
       transform="matrix(0.01185598,0,0,0.01185598,315.29105,4143.9082)">
      <path
         d="m 398.85388,3285.4751 0,-10.9907 q -15.36914,13.9394 -33.24023,13.9394 -10.99073,0 -16.70948,-5.9868 -7.4165,-7.8633 -7.4165,-18.3179 l 0,-48.4306 -10.09717,0 q -2.68066,0 -3.84228,-1.0723 -1.16162,-1.0723 -1.16162,-2.77 0,-1.6084 1.16162,-2.6807 1.16162,-1.0722 3.84228,-1.0722 l 17.60303,0 0,56.0258 q 0,7.3272 4.64648,12.063 4.64649,4.7359 11.61622,4.7359 18.31787,0 33.59765,-16.7989 l 0,-48.4306 -13.8501,0 q -2.68066,0 -3.84228,-1.0723 -1.16162,-1.0723 -1.16162,-2.77 0,-1.6084 1.16162,-2.6807 1.16162,-1.0722 3.84228,-1.0722 l 21.35596,0 0,69.8759 6.34424,0 q 2.68066,0 3.84228,1.0723 1.16163,0.9829 1.16163,2.6807 0,1.6084 -1.16163,2.6806 -1.16162,1.0723 -3.84228,1.0723 l -13.8501,0 z"
         style="font-style:normal;font-variant:normal;font-weight:normal;font-stretch:normal;font-family:'Courier New';-inkscape-font-specification:'Courier New'"
         id="path4406"
         inkscape:connector-curvature="0" />
    </g>
    <g
       style="font-style:normal;font-weight:normal;font-size:183px;line-height:125%;font-family:sans-serif;letter-spacing:0px;word-spacing:0px;fill:#000000;fill-opacity:1;stroke:none;stroke-width:1px;stroke-linecap:butt;stroke-linejoin:miter;stroke-opacity:1"
       id="text4136-35-92-7-6-87"
       transform="matrix(0.01185598,0,0,0.01185598,315.29105,4141.7824)">
      <path
         d="m 378.61487,3466.2437 -12.68848,0 -30.82764,-69.7867 -7.68457,0 q -2.68066,0 -3.84228,-1.0722 -1.16162,-1.0723 -1.16162,-2.7701 0,-1.6084 1.16162,-2.6806 1.16162,-1.0723 3.84228,-1.0723 l 28.14698,0 q 2.68066,0 3.84228,1.0723 1.16162,1.0722 1.16162,2.77 0,1.6084 -1.16162,2.6807 -1.16162,1.0722 -3.84228,1.0722 l -12.42041,0 27.52148,62.2808 3.30615,0 26.98536,-62.2808 -12.50977,0 q -2.68066,0 -3.84229,-1.0722 -1.16162,-1.0723 -1.16162,-2.7701 0,-1.6084 1.16162,-2.6806 1.16163,-1.0723 3.84229,-1.0723 l 28.23633,0 q 2.77002,0 3.84228,1.0723 1.16162,1.0722 1.16162,2.77 0,1.6084 -1.16162,2.6807 -1.07226,1.0722 -3.84228,1.0722 l -7.59522,0 -30.47021,69.7867 z"
         style="font-style:normal;font-variant:normal;font-weight:normal;font-stretch:normal;font-family:'Courier New';-inkscape-font-specification:'Courier New'"
         id="path4403"
         inkscape:connector-curvature="0" />
    </g>
    <g
       style="font-style:normal;font-weight:normal;font-size:183px;line-height:125%;font-family:sans-serif;letter-spacing:0px;word-spacing:0px;fill:#000000;fill-opacity:1;stroke:none;stroke-width:1px;stroke-linecap:butt;stroke-linejoin:miter;stroke-opacity:1"
       id="text4136-35-92-7-6-6"
       transform="matrix(0.01185598,0,0,0.01185598,315.29105,4139.6566)">
      <path
         d="m 397.96033,3645.4929 -9.29297,0.089 -16.53076,-48.252 -16.44141,48.252 -9.29297,-0.089 -15.54785,-69.7866 -3.66357,0 q -2.68067,0 -3.84229,-1.0723 -1.16162,-1.0722 -1.16162,-2.77 0,-1.6084 1.16162,-2.6807 1.16162,-1.0722 3.84229,-1.0722 l 20.64111,0 q 2.68066,0 3.84228,1.0722 1.16163,1.0723 1.16163,2.7701 0,1.6084 -1.16163,2.6806 -1.16162,1.0723 -3.84228,1.0723 l -9.56104,0 13.31397,59.5107 15.99463,-47.5371 8.93554,0 16.44141,47.5371 12.77783,-59.5107 -9.47168,0 q -2.68066,0 -3.93164,-1.0723 -1.16162,-1.0722 -1.16162,-2.77 0,-1.6084 1.16162,-2.6807 1.16162,-1.0722 3.93164,-1.0722 l 20.55176,0 q 2.77002,0 3.93164,1.0722 1.16162,1.0723 1.16162,2.7701 0,1.6084 -1.16162,2.6806 -1.16162,1.0723 -3.93164,1.0723 l -3.57422,0 -15.27978,69.7866 z"
         style="font-style:normal;font-variant:normal;font-weight:normal;font-stretch:normal;font-family:'Courier New';-inkscape-font-specification:'Courier New'"
         id="path4400"
         inkscape:connector-curvature="0" />
    </g>
    <g
       style="font-style:normal;font-weight:normal;font-size:183px;line-height:125%;font-family:sans-serif;letter-spacing:0px;word-spacing:0px;fill:#000000;fill-opacity:1;stroke:none;stroke-width:1px;stroke-linecap:butt;stroke-linejoin:miter;stroke-opacity:1"
       id="text4136-35-92-7-6-4"
       transform="matrix(0.01185598,0,0,0.01185598,315.29105,4137.531)">
      <path
         d="m 377.09583,3784.3538 34.40185,32.9721 q 3.39551,0 4.28906,0.3574 0.89356,0.2681 1.51905,1.251 0.71484,0.9829 0.71484,2.1446 0,1.6084 -1.16162,2.6806 -1.16162,1.0723 -3.93164,1.0723 l -24.12598,0 q -2.77002,0 -3.93164,-1.0723 -1.16162,-1.0722 -1.16162,-2.6806 0,-1.6978 1.16162,-2.6807 1.16162,-1.0723 3.93164,-1.0723 l 12.42041,0 -29.21924,-27.9682 -29.04052,27.9682 12.50976,0 q 2.68067,0 3.84229,1.0723 1.16162,0.9829 1.16162,2.6807 0,1.6084 -1.16162,2.6806 -1.16162,1.0723 -3.84229,1.0723 l -24.39404,0 q -2.68067,0 -3.84229,-1.0723 -1.16162,-1.0722 -1.16162,-2.6806 0,-1.1617 0.62549,-2.1446 0.71484,-0.9829 1.51904,-1.251 0.89356,-0.3574 4.28907,-0.3574 l 34.40185,-32.9721 -30.55957,-29.3086 q -3.2168,0 -4.11035,-0.3575 -0.8042,-0.3574 -1.51904,-1.3403 -0.62549,-0.9829 -0.62549,-2.1445 0,-1.6084 1.16162,-2.6807 1.16162,-1.0722 3.93164,-1.0722 l 20.4624,0 q 2.77002,0 3.84229,1.0722 1.16162,1.0723 1.16162,2.77 0,1.6084 -1.16162,2.6807 -1.07227,1.0723 -3.84229,1.0723 l -8.93554,0 25.28759,24.394 25.46631,-24.394 -8.93554,0 q -2.68067,0 -3.93165,-1.0723 -1.16162,-1.0723 -1.16162,-2.77 0,-1.6084 1.16162,-2.6807 1.16163,-1.0722 3.93165,-1.0722 l 20.4624,0 q 2.68066,0 3.84228,1.0722 1.16162,1.0723 1.16162,2.77 0,1.0723 -0.71484,2.0552 -0.62549,0.9829 -1.51904,1.3403 -0.8042,0.3575 -4.021,0.3575 l -30.64892,29.3086 z"
         style="font-style:normal;font-variant:normal;font-weight:normal;font-stretch:normal;font-family:'Courier New';-inkscape-font-specification:'Courier New'"
         id="path4397"
         inkscape:connector-curvature="0" />
    </g>
    <g
       style="font-style:normal;font-weight:normal;font-size:183px;line-height:125%;font-family:sans-serif;letter-spacing:0px;word-spacing:0px;fill:#000000;fill-opacity:1;stroke:none;stroke-width:1px;stroke-linecap:butt;stroke-linejoin:miter;stroke-opacity:1"
       id="text4136-35-92-7-6-69"
       transform="matrix(0.01185598,0,0,0.01185598,315.29105,4135.4053)">
      <path
         d="m 368.24963,3986.8801 -34.84863,-69.7866 -2.23389,0 q -2.68066,0 -3.84228,-1.0723 -1.16162,-1.0722 -1.16162,-2.6806 0,-1.1616 0.53613,-2.0552 0.62549,-0.9829 1.51904,-1.3403 0.98291,-0.4468 2.94873,-0.4468 l 20.55176,0 q 2.68067,0 3.84229,1.0723 1.16162,1.0722 1.16162,2.77 0,1.6084 -1.16162,2.6806 -1.16162,1.0723 -3.84229,1.0723 l -10.09717,0 30.64893,61.5659 30.20215,-61.5659 -10.09717,0 q -2.68066,0 -3.84228,-1.0723 -1.16163,-1.0722 -1.16163,-2.77 0,-1.6084 1.16163,-2.6806 1.16162,-1.0723 3.84228,-1.0723 l 20.4624,0 q 2.77002,0 3.93164,1.0723 1.16162,1.0722 1.16162,2.77 0,1.1616 -0.71484,2.1445 -0.71484,0.9829 -1.6084,1.3403 -0.89355,0.2681 -5.0039,0.2681 l -47.53711,96.772 11.70556,0 q 2.68067,0 3.84229,0.9829 1.16162,1.0723 1.16162,2.77 0,1.6084 -1.16162,2.6807 -1.16162,1.0722 -3.84229,1.0722 l -43.24804,0 q -2.68067,0 -3.84229,-1.0722 -1.16162,-0.9829 -1.16162,-2.6807 0,-1.6977 1.16162,-2.77 1.16162,-0.9829 3.84229,-0.9829 l 23.50048,0 13.22461,-26.9854 z"
         style="font-style:normal;font-variant:normal;font-weight:normal;font-stretch:normal;font-family:'Courier New';-inkscape-font-specification:'Courier New'"
         id="path4394"
         inkscape:connector-curvature="0" />
    </g>
    <g
       style="font-style:normal;font-weight:normal;font-size:183px;line-height:125%;font-family:sans-serif;letter-spacing:0px;word-spacing:0px;fill:#000000;fill-opacity:1;stroke:none;stroke-width:1px;stroke-linecap:butt;stroke-linejoin:miter;stroke-opacity:1"
       id="text4136-35-92-7-6-9"
       transform="matrix(0.01185598,0,0,0.01185598,315.29105,4133.2795)">
      <path
         d="m 404.25989,4106.0381 0,6.7016 -56.20459,63.1744 50.7539,0 0,-10.3653 q 0,-2.6806 0.98291,-3.8423 1.07227,-1.1616 2.77002,-1.1616 1.69776,0 2.77002,1.1616 1.07227,1.1617 1.07227,3.8423 l -0.0894,17.8711 -68.625,0 0,-6.7016 55.93653,-63.085 -46.64356,0 0,10.1865 q 0,2.6807 -1.07226,3.8423 -1.07227,1.1616 -2.68067,1.1616 -1.69775,0 -2.77002,-1.1616 -1.07226,-1.1616 -1.07226,-3.8423 l 0,-17.7817 64.87207,0 z"
         style="font-style:normal;font-variant:normal;font-weight:normal;font-stretch:normal;font-family:'Courier New';-inkscape-font-specification:'Courier New'"
         id="path4391"
         inkscape:connector-curvature="0" />
    </g>
  </g>
</svg>
