<?xml version="1.0" encoding="UTF-8" standalone="no"?>
<svg>
<path
     d="m 7.9914652,76.066312 c -1.70176,-2.050493 -1.01655,-4.433712 3.2102798,-11.165593 2.30054,-3.663975 4.18281,-6.974257 4.18281,-7.356169 0,-0.381912 0.70313,-1.808212 1.5625,-3.16955 0.85938,-1.361338 1.5625,-2.576749 1.5625,-2.700913 0,-0.124163 1.54688,-2.590402 3.4375,-5.48053 1.89063,-2.890129 3.4375,-5.597969 3.4375,-6.017422 0,-0.994371 2.43321,-5.792968 3.67611,-7.249753 1.5383,-1.803022 3.58277,-5.345478 6.19776,-10.738882 2.61996,-5.403656 7.20913,-12.7853789 8.43156,-13.5622379 0.41639,-0.264616 1.63833,-0.485428 2.71543,-0.490691 2.6302,-0.01286 3.38678,2.2563209 1.31985,3.9585279 -1.32378,1.09019 -2.59435,3.08053 -4.24956,6.656901 -2.49741,5.396112 -2.39672,5.215446 -6.9974,12.555798 -1.63281,2.60514 -2.96875,5.073176 -2.96875,5.484523 0,0.697602 -3.05196,5.967755 -7.02049,12.123046 -0.93939,1.457024 -2.17043,3.633508 -2.73564,4.836633 -2.68761,5.7209 -5.12796,9.906519 -7.88415,13.522644 -0.93653,1.228731 -1.86938,3.122087 -2.073,4.207468 -0.68931,3.674338 -4.2360198,6.476482 -5.8048098,4.5862 z M 0.79068522,70.151488 c -0.16096,-0.260425 -0.47038,-1.455738 -0.6876,-2.65625 -0.3171,-1.752463 0.0442,-3.045169 1.83285998,-6.557738 2.65678,-5.217406 4.66447,-8.54823 6.1259,-10.163095 0.58999,-0.651932 1.07271,-1.695776 1.07271,-2.319653 0,-0.623878 1.4062498,-3.470875 3.1249998,-6.326661 1.71875,-2.855787 3.125,-5.451834 3.125,-5.768995 0,-0.670073 2.03468,-4.242817 5.93511,-10.421596 1.51898,-2.40625 2.77373,-4.751176 2.78833,-5.210947 0.0361,-1.137062 4.21971,-8.547575 5.35958,-9.49358 0.50434,-0.418566 0.91698,-1.3093219 0.91698,-1.9794569 0,-1.239838 2.57899,-6.1738001 4.26512,-8.1597661 C 35.160415,0.492188 36.358885,0 37.312955,0 c 3.44368,0 2.59713,4.5616911 -2.26174,12.1875 -3.29112,5.165293 -5.91666,10.211126 -5.91666,11.3708 0,0.365004 -0.44486,1.032844 -0.98857,1.484088 -0.93367,0.774878 -2.43755,3.324284 -4.03052,6.832612 -2.09094,4.60506 -4.2571,8.387014 -7.64005,13.338948 -0.66748,0.977046 -1.28171,2.396934 -1.36496,3.155306 -0.0833,0.758372 -1.22487,3.05272 -2.53693,5.098552 -1.31207,2.045832 -3.0625798,5.245238 -3.8900298,7.109788 -0.82745,1.864556 -2.04884,4.082168 -2.7142,4.928037 -0.66535,0.845869 -1.20974,2.17305 -1.20974,2.949288 0,1.762887 -3.10704,3.09105 -3.96886998,1.696569 z"
     />
<path
     d="m 9.1725497,34.777793 c -0.929309,-0.929309 -0.887696,-1.251952 0.523962,-4.0625 0.8433943,-1.67916 1.7723803,-3.053018 2.0644123,-3.053018 0.629242,0 2.133085,-3.717231 1.962972,-4.852115 -0.0651,-0.434288 0.298951,-0.949751 0.808996,-1.145474 0.510045,-0.195723 0.774398,-0.754458 0.587451,-1.241635 -0.186947,-0.487177 -0.02856,-0.885776 0.351964,-0.885776 0.380527,0 0.691868,-0.421875 0.691868,-0.9375 0,-0.515625 0.5625,-1.5 1.25,-2.1875 0.6875,-0.6875 1.25,-1.511161 1.25,-1.830357 0,-0.319197 0.351562,-0.952009 0.78125,-1.40625 0.429687,-0.454241 1.166622,-1.573701 1.637632,-2.487689 0.57594,-1.117605 1.651644,-1.863656 3.284869,-2.278213 2.626957,-0.666792 2.675401,-0.638815 3.280728,1.894746 0.349495,1.462788 0.17999,1.761788 -1.194307,2.106714 -1.120622,0.281258 -1.709693,0.942405 -1.961515,2.201514 -0.197949,0.989744 -0.6226,1.799535 -0.943668,1.799535 -0.321068,0 -0.409938,0.28125 -0.197489,0.625 0.212449,0.34375 -0.06988,0.625 -0.627401,0.625 -0.639817,0 -0.941556,0.426071 -0.818135,1.155251 0.226199,1.336413 -1.25027,4.447631 -2.615981,5.512398 -0.515085,0.401582 -0.742959,0.923709 -0.506386,1.160281 0.236572,0.236572 -0.07816,0.975715 -0.699398,1.642539 -0.621241,0.666824 -1.658993,2.239528 -2.306114,3.494898 -2.539034,4.925545 -4.560374,6.195487 -6.6057103,4.150151 z M 1.7891747,29.563978 C 0.67932069,29.287927 0.16938369,28.684592 0.02891069,27.481309 c -0.111571,-0.955713 0.108803,-1.694034 0.505636,-1.694034 0.386869,0 0.52835001,-0.283236 0.3144,-0.629414 -0.21395,-0.346178 0.02213,-0.787179 0.52462001,-0.980003 0.50249,-0.192824 1.213878,-1.543027 1.580862,-3.000452 0.366984,-1.457425 1.239307,-3.309457 1.938495,-4.115628 0.699188,-0.806171 1.271911,-1.774294 1.272717,-2.151384 8.13e-4,-0.37709 0.809905,-1.631503 1.797996,-2.787583 0.988091,-1.15608 1.675772,-2.563741 1.52818,-3.128135 -0.147593,-0.564394 0.263162,-1.596681 0.9127873,-2.293972 0.649626,-0.697292 1.372894,-2.0318184 1.607262,-2.9656154 0.234368,-0.933797 0.702016,-1.697814 1.039217,-1.697814 0.3372,0 0.613092,-0.421875 0.613092,-0.9375 0,-0.583333 0.590278,-0.9375 1.5625,-0.9375 0.859375,0 1.761907,-0.07031 2.005628,-0.15625 0.24372,-0.08594 0.630074,0.757813 0.858563,1.875 0.236059,1.1542 0.159869,2.03125 -0.176456,2.03125 -0.325539,0 -0.490816,0.492188 -0.367282,1.09375 0.193111,0.9403664 -3.13416,7.0033074 -5.14489,9.3750004 -0.364291,0.429687 -0.499676,0.78125 -0.300857,0.78125 0.198818,0 -0.191303,0.593351 -0.866935,1.318557 -0.675633,0.725207 -1.078374,1.709582 -0.894979,2.1875 0.205222,0.534802 -0.0808,0.868943 -0.7438193,0.868943 -0.769556,0 -0.983892,0.357046 -0.75038,1.25 0.179785,0.6875 0.07196,1.25 -0.239605,1.25 -0.311569,0 -0.566488,0.546552 -0.566488,1.21456 0,0.668008 -0.542651,1.594647 -1.205891,2.059199 -0.66324,0.464552 -1.391747,1.585148 -1.618905,2.490217 -0.478423,1.906191 -1.25064,2.3036 -3.425204,1.762727 z"
     />
<path
     d="M 80.454425,85.15625 C 75.82855,80.850737 68.419975,74.576037 53.171152,62.048657 50.567643,59.909794 45.582788,55.691044 42.093695,52.673657 26.654775,39.321995 16.899151,30.792631 13.208638,27.419385 9.34088,23.884134 9.24213,23.716718 9.6722519,21.423972 c 0.4035041,-2.150863 1.1886461,-3.264197 2.3197411,-3.289401 0.236221,-0.0053 1.783096,1.255565 3.4375,2.801843 1.654404,1.546278 3.711132,2.998524 4.570507,3.227212 0.859375,0.228687 2.898437,1.494801 4.53125,2.813585 4.816956,3.890541 8.477286,6.828423 16.09375,12.91729 3.953125,3.160266 9.532414,7.640902 12.398421,9.956968 10.483891,8.472207 13.84011,11.16795 18.860016,15.148531 2.817769,2.234375 7.413907,5.904981 10.213644,8.156906 2.799731,2.251919 6.004481,4.732013 7.121669,5.511306 C 91.545612,80.291325 91.7949,81.813137 90,83.4375 89.3125,84.059681 88.75,85.165687 88.75,85.8953 88.75,87.3607 87.130525,90 86.231356,90 85.916337,90 83.316719,87.820312 80.454425,85.15625 Z M 85.2625,81.032569 c -0.387488,-1.009763 -3.990556,-3.762844 -4.395125,-3.358282 -0.272225,0.272225 3.886831,4.200713 4.447256,4.200713 0.149125,0 0.125669,-0.379094 -0.05213,-0.842431 z m 5.778625,-2.726125 C 88.526581,75.972275 82.427312,70.40625 77.487181,65.9375 72.547056,61.46875 65.114919,54.71355 60.971317,50.925944 56.827718,47.138339 50.90625,41.808686 47.8125,39.082273 44.71875,36.355859 37.757812,30.065739 32.34375,25.104228 22.538933,16.118978 22.5,16.072592 22.5,13.376139 22.5,11.33931 22.799343,10.508776 23.708912,10.02199 24.373813,9.6661456 25.059071,9.375 25.231707,9.375 c 0.172637,0 2.089564,1.726993 4.259839,3.837761 3.56528,3.467525 14.223138,12.74468 28.260877,24.599739 2.849274,2.40625 8.495102,7.1875 12.546289,10.625 6.831313,5.796487 12.846163,10.846736 20.681519,17.364825 1.74225,1.449344 5.060556,4.148112 7.374013,5.997256 4.254686,3.400775 5.055966,5.14395 2.576076,5.604244 -1.76227,0.3271 -2.80532,1.312663 -2.80532,2.650713 0,0.633318 -0.565194,1.453968 -1.255994,1.823668 -1.089287,0.582969 -1.862787,0.108913 -5.827881,-3.571762 z M 97.79865,68.003006 C 96.431269,66.904662 92.5,63.283431 89.0625,59.955822 85.625,56.628216 81.265625,52.570514 79.375,50.938709 77.484375,49.306902 71.4375,43.707124 65.9375,38.494756 60.4375,33.282387 54.392131,27.621547 52.503346,25.915111 38.18918,12.982875 34.375,9.1436638 34.375,7.6677938 34.375,6.8222081 33.911004,5.3448829 33.343898,4.3848492 32.215585,2.4747673 32.548772,0.625 34.021137,0.625 c 1.052366,0 2.359452,1.0765692 13.653753,11.24578 4.393064,3.955446 10.471114,9.301095 13.506776,11.87922 3.035665,2.578125 7.87884,6.841627 10.762609,9.474448 2.883775,2.632821 6.985756,6.289071 9.115519,8.125 2.129762,1.835929 6.207887,5.405648 9.0625,7.932709 14.870556,13.164237 17.540216,15.399074 19.258016,16.121356 1.97059,0.828568 2.36831,1.972868 1.11969,3.221487 -1.07421,1.074206 -3.02058,0.925113 -4.41666,-0.338319 -1.14865,-1.039525 -1.25343,-1.025512 -2.33689,0.3125 -1.54521,1.908257 -3.01308,1.761125 -5.9478,-0.596175 z"
     />
</svg>