<svg xmlns="http://www.w3.org/2000/svg" width="2" height="2">
    <path d="M.966513.93303Q.959313.80814.915833.68506.854293.50768.854293.44071q0-.0941.04344-.14299.04525-.0489.110411-.0489.05611 0 .09774.0489.04163.0489.04163.13937 0 .0815-.04887.22806-.04706.1448-.05792.26788.09955-.0634.179191-.15385.12308-.14299.182811-.17738.05973-.0344.12127-.0344.05973 0 .09955.0416.04163.0398.04163.0959 0 .067-.05973.11946-.05973.0525-.298652.10498-.139371.0308-.231681.0706.09412.0489.229871.0742.219011.0398.285982.0996.06878.0597.06878.13032 0 .0543-.04163.0941-.03982.0398-.09412.0398-.0543 0-.12127-.038-.06516-.038-.177381-.17014-.07421-.0887-.184621-.16652.0036.10317.04163.22444.06516.21358.06516.29141 0 .0724-.04344.12308-.04344.0489-.09231.0489-.06697 0-.121271-.0525-.03801-.038-.03801-.12127 0-.0869.04163-.20815.04163-.12308.05249-.16833.01086-.0471.01991-.13756-.10679.0706-.186431.15747-.13213.14842-.199101.18824-.04706.029-.09774.029-.06154 0-.104981-.0416-.04344-.0416-.04344-.0923 0-.0453.0362-.0941.03801-.0507.112221-.0833.04887-.0217.222631-.0579.112221-.0235.219011-.0688-.09774-.0489-.233491-.076Q.468761.87693.41627.83893.33482.77923.33482.69413q0-.0489.03982-.0887.04163-.0416.09593-.0416.05973 0 .1267.038t.166521.15385q.09955.11403.202721.17738z"/>
</svg>